<svg width="293" height="54" viewBox="0 0 293 54" fill="none" xmlns="http://www.w3.org/2000/svg">
<path d="M29.632 8.53583C30.0578 7.57962 29.6299 6.45066 28.6401 6.11018C24.5393 4.69961 20.093 4.55089 15.8834 5.70796C11.0624 7.03306 6.84996 9.9888 3.96391 14.0715C1.07786 18.1543 -0.303273 23.1114 0.0558407 28.0983C0.414954 33.0852 2.4921 37.7933 5.93335 41.4204C9.37459 45.0475 13.967 47.3692 18.9282 47.9899C23.8893 48.6105 28.9122 47.4918 33.1409 44.8243C37.3697 42.1568 40.5427 38.1055 42.1193 33.3608C43.496 29.2178 43.5811 24.7699 42.388 20.6006C42.1 19.5943 40.9951 19.1076 40.0178 19.4826C39.0406 19.8576 38.5629 20.9524 38.8321 21.9639C39.7221 25.3086 39.6221 28.8551 38.5221 32.1655C37.222 36.078 34.6055 39.4186 31.1185 41.6182C27.6315 43.8178 23.4897 44.7403 19.3987 44.2285C15.3078 43.7167 11.5209 41.8023 8.68327 38.8114C5.84563 35.8205 4.13283 31.9382 3.8367 27.826C3.54058 23.7139 4.67946 19.6262 7.05928 16.2596C9.43911 12.893 12.9126 10.4557 16.888 9.36305C20.2516 8.43853 23.7985 8.52501 27.0917 9.58953C28.0878 9.91148 29.2061 9.49205 29.632 8.53583Z" fill="#27227A"/>
<path d="M24.1877 17.2736C24.9492 16.26 24.4119 14.8292 23.1477 14.7342C20.8899 14.5647 18.3371 14.7426 16.6523 15.4838C14.2443 16.5433 12.2491 18.3615 10.9712 20.661C9.69329 22.9606 9.20287 25.615 9.57478 28.2194C9.94668 30.8237 11.1605 33.2348 13.0309 35.0847C14.9014 36.9346 17.3258 38.1217 19.934 38.4648C22.5423 38.808 25.1912 38.2882 27.4765 36.985C29.7617 35.6818 31.5578 33.6667 32.5906 31.2471C33.3073 29.5681 33.6042 27.0736 33.505 24.8512C33.4461 23.5335 31.9885 22.9489 30.8978 23.6907C30.2396 24.1382 29.9515 24.9482 30.0236 25.7409C30.1512 27.1443 29.9307 28.5647 29.3721 29.8733C28.6392 31.5903 27.3646 33.0203 25.7429 33.9451C24.1212 34.8699 22.2414 35.2387 20.3905 34.9952C18.5395 34.7517 16.8191 33.9093 15.4918 32.5966C14.1644 31.2838 13.303 29.5728 13.0391 27.7246C12.7752 25.8765 13.1232 23.9928 14.0301 22.361C14.9369 20.7291 16.3528 19.4388 18.0616 18.687C19.4163 18.091 20.8961 17.8593 22.3559 18.0051C23.0537 18.0748 23.7665 17.8343 24.1877 17.2736Z" fill="#27227A"/>
<path d="M17.6691 24.837C19.0121 21.5176 22.3912 21.808 23.9128 22.3681L34.3438 12.0193L34.7775 7.44942L42.7033 0L42.6737 7.48065L49.3232 7.50695L41.8129 14.958L37.2414 14.9399L35.9897 16.1818L26.3949 25.287C26.3923 25.9519 26.1102 27.2253 25.9695 27.7789C24.9576 31.4322 21.3853 30.947 19.7257 30.2478C17.0712 28.9074 17.2486 26.0821 17.6691 24.837Z" fill="#27227A"/>
<path d="M70.5936 42.024V44.5175H73.3118V45.3201H70.5936V47.8885H73.6329V48.6911H69.6198V41.2214H73.6329V42.024H70.5936ZM82.1588 42.7196C82.6154 42.7196 83.022 42.8159 83.3788 43.0086C83.7355 43.1941 84.0173 43.4759 84.2242 43.854C84.4311 44.2321 84.5345 44.6923 84.5345 45.2345V48.6911H83.5714V45.3736C83.5714 44.7886 83.4251 44.3427 83.1326 44.0359C82.8472 43.722 82.4584 43.565 81.9661 43.565C81.4596 43.565 81.0565 43.7291 80.7569 44.0573C80.4572 44.3784 80.3074 44.8457 80.3074 45.4592V48.6911H79.3443V45.3736C79.3443 44.7886 79.198 44.3427 78.9055 44.0359C78.6201 43.722 78.2313 43.565 77.739 43.565C77.2325 43.565 76.8294 43.7291 76.5298 44.0573C76.2301 44.3784 76.0803 44.8457 76.0803 45.4592V48.6911H75.1064V42.8266H76.0803V43.6721C76.2729 43.3653 76.5298 43.1299 76.8508 42.9658C77.179 42.8017 77.5393 42.7196 77.9317 42.7196C78.4239 42.7196 78.8591 42.8302 79.2372 43.0514C79.6154 43.2725 79.8972 43.5972 80.0827 44.0252C80.2468 43.6114 80.5179 43.2904 80.896 43.0621C81.2741 42.8338 81.695 42.7196 82.1588 42.7196ZM87.1058 43.9075C87.2985 43.5722 87.5838 43.2939 87.962 43.0728C88.3472 42.8445 88.7931 42.7303 89.2997 42.7303C89.8205 42.7303 90.2913 42.8552 90.7123 43.1049C91.1403 43.3546 91.4756 43.7077 91.7182 44.1643C91.9608 44.6138 92.0821 45.1382 92.0821 45.7375C92.0821 46.3296 91.9608 46.8576 91.7182 47.3213C91.4756 47.785 91.1403 48.1453 90.7123 48.4022C90.2913 48.659 89.8205 48.7874 89.2997 48.7874C88.8002 48.7874 88.3579 48.6768 87.9727 48.4557C87.5945 48.2274 87.3056 47.9456 87.1058 47.6102V51.4735H86.132V42.8266H87.1058V43.9075ZM91.0868 45.7375C91.0868 45.2951 90.9976 44.9099 90.8193 44.5817C90.6409 44.2535 90.3983 44.0038 90.0916 43.8326C89.7919 43.6614 89.4602 43.5758 89.0963 43.5758C88.7396 43.5758 88.4079 43.6649 88.1011 43.8433C87.8014 44.0145 87.5589 44.2678 87.3734 44.6031C87.195 44.9313 87.1058 45.313 87.1058 45.7482C87.1058 46.1905 87.195 46.5793 87.3734 46.9146C87.5589 47.2428 87.8014 47.4961 88.1011 47.6745C88.4079 47.8457 88.7396 47.9313 89.0963 47.9313C89.4602 47.9313 89.7919 47.8457 90.0916 47.6745C90.3983 47.4961 90.6409 47.2428 90.8193 46.9146C90.9976 46.5793 91.0868 46.1869 91.0868 45.7375ZM95.9216 48.7874C95.3722 48.7874 94.8728 48.6626 94.4234 48.4129C93.981 48.1632 93.6314 47.81 93.3746 47.3534C93.1249 46.8897 93.0001 46.3546 93.0001 45.7482C93.0001 45.1489 93.1285 44.6209 93.3853 44.1643C93.6493 43.7006 94.006 43.3474 94.4555 43.1049C94.9049 42.8552 95.4079 42.7303 95.9644 42.7303C96.5209 42.7303 97.0238 42.8552 97.4733 43.1049C97.9228 43.3474 98.2759 43.697 98.5328 44.1536C98.7967 44.6102 98.9287 45.1417 98.9287 45.7482C98.9287 46.3546 98.7932 46.8897 98.5221 47.3534C98.2581 47.81 97.8978 48.1632 97.4412 48.4129C96.9846 48.6626 96.4781 48.7874 95.9216 48.7874ZM95.9216 47.9313C96.2712 47.9313 96.5993 47.8492 96.9061 47.6852C97.2129 47.5211 97.459 47.2749 97.6445 46.9467C97.8372 46.6186 97.9335 46.219 97.9335 45.7482C97.9335 45.2773 97.8407 44.8778 97.6552 44.5496C97.4697 44.2214 97.2272 43.9788 96.9275 43.8219C96.6279 43.6578 96.3033 43.5758 95.9537 43.5758C95.597 43.5758 95.2688 43.6578 94.9691 43.8219C94.6766 43.9788 94.4412 44.2214 94.2628 44.5496C94.0845 44.8778 93.9953 45.2773 93.9953 45.7482C93.9953 46.2262 94.0809 46.6293 94.2521 46.9574C94.4305 47.2856 94.6659 47.5318 94.9584 47.6959C95.251 47.8528 95.572 47.9313 95.9216 47.9313ZM108.021 42.8266L106.191 48.6911H105.185L103.773 44.0359L102.36 48.6911H101.354L99.5135 42.8266H100.509L101.857 47.7494L103.313 42.8266H104.308L105.731 47.7601L107.058 42.8266H108.021ZM114.339 45.5341C114.339 45.7196 114.328 45.9158 114.306 46.1227H109.619C109.655 46.7006 109.851 47.1536 110.208 47.4818C110.572 47.8029 111.01 47.9634 111.524 47.9634C111.945 47.9634 112.295 47.8671 112.573 47.6745C112.858 47.4747 113.058 47.2107 113.172 46.8825H114.221C114.064 47.4462 113.75 47.9063 113.279 48.263C112.808 48.6126 112.223 48.7874 111.524 48.7874C110.968 48.7874 110.468 48.6626 110.026 48.4129C109.591 48.1632 109.248 47.81 108.998 47.3534C108.749 46.8897 108.624 46.3546 108.624 45.7482C108.624 45.1417 108.745 44.6102 108.988 44.1536C109.23 43.697 109.569 43.3474 110.004 43.1049C110.447 42.8552 110.953 42.7303 111.524 42.7303C112.081 42.7303 112.573 42.8516 113.001 43.0942C113.429 43.3367 113.757 43.6721 113.985 44.1001C114.221 44.5211 114.339 44.9991 114.339 45.5341ZM113.333 45.3308C113.333 44.9598 113.251 44.6423 113.086 44.3784C112.922 44.1073 112.698 43.9039 112.412 43.7684C112.134 43.6257 111.824 43.5543 111.481 43.5543C110.989 43.5543 110.568 43.7113 110.218 44.0252C109.876 44.3391 109.68 44.7743 109.63 45.3308H113.333ZM116.598 43.7791C116.769 43.4438 117.012 43.1834 117.326 42.9979C117.647 42.8124 118.035 42.7196 118.492 42.7196V43.7256H118.235C117.144 43.7256 116.598 44.3177 116.598 45.502V48.6911H115.624V42.8266H116.598V43.7791ZM126.669 42.7196C127.125 42.7196 127.532 42.8159 127.889 43.0086C128.245 43.1941 128.527 43.4759 128.734 43.854C128.941 44.2321 129.044 44.6923 129.044 45.2345V48.6911H128.081V45.3736C128.081 44.7886 127.935 44.3427 127.642 44.0359C127.357 43.722 126.968 43.565 126.476 43.565C125.969 43.565 125.566 43.7291 125.267 44.0573C124.967 44.3784 124.817 44.8457 124.817 45.4592V48.6911H123.854V45.3736C123.854 44.7886 123.708 44.3427 123.415 44.0359C123.13 43.722 122.741 43.565 122.249 43.565C121.742 43.565 121.339 43.7291 121.04 44.0573C120.74 44.3784 120.59 44.8457 120.59 45.4592V48.6911H119.616V42.8266H120.59V43.6721C120.783 43.3653 121.04 43.1299 121.361 42.9658C121.689 42.8017 122.049 42.7196 122.441 42.7196C122.934 42.7196 123.369 42.8302 123.747 43.0514C124.125 43.2725 124.407 43.5972 124.592 44.0252C124.757 43.6114 125.028 43.2904 125.406 43.0621C125.784 42.8338 126.205 42.7196 126.669 42.7196ZM135.993 45.5341C135.993 45.7196 135.982 45.9158 135.96 46.1227H131.273C131.309 46.7006 131.505 47.1536 131.862 47.4818C132.226 47.8029 132.664 47.9634 133.178 47.9634C133.599 47.9634 133.949 47.8671 134.227 47.6745C134.512 47.4747 134.712 47.2107 134.826 46.8825H135.875C135.718 47.4462 135.404 47.9063 134.933 48.263C134.462 48.6126 133.877 48.7874 133.178 48.7874C132.622 48.7874 132.122 48.6626 131.68 48.4129C131.245 48.1632 130.902 47.81 130.652 47.3534C130.403 46.8897 130.278 46.3546 130.278 45.7482C130.278 45.1417 130.399 44.6102 130.642 44.1536C130.884 43.697 131.223 43.3474 131.658 43.1049C132.101 42.8552 132.607 42.7303 133.178 42.7303C133.734 42.7303 134.227 42.8516 134.655 43.0942C135.083 43.3367 135.411 43.6721 135.639 44.1001C135.875 44.5211 135.993 44.9991 135.993 45.5341ZM134.987 45.3308C134.987 44.9598 134.905 44.6423 134.74 44.3784C134.576 44.1073 134.352 43.9039 134.066 43.7684C133.788 43.6257 133.478 43.5543 133.135 43.5543C132.643 43.5543 132.222 43.7113 131.872 44.0252C131.53 44.3391 131.334 44.7743 131.284 45.3308H134.987ZM140.135 42.7196C140.849 42.7196 141.427 42.9372 141.869 43.3724C142.311 43.8005 142.532 44.4212 142.532 45.2345V48.6911H141.569V45.3736C141.569 44.7886 141.423 44.3427 141.131 44.0359C140.838 43.722 140.439 43.565 139.932 43.565C139.418 43.565 139.008 43.7256 138.701 44.0466C138.402 44.3677 138.252 44.835 138.252 45.4485V48.6911H137.278V42.8266H138.252V43.6614C138.444 43.3617 138.705 43.1299 139.033 42.9658C139.368 42.8017 139.736 42.7196 140.135 42.7196ZM145.311 43.6293V47.0859C145.311 47.3712 145.372 47.5746 145.493 47.6959C145.614 47.81 145.825 47.8671 146.124 47.8671H146.841V48.6911H145.964C145.422 48.6911 145.015 48.5662 144.744 48.3165C144.473 48.0668 144.337 47.6566 144.337 47.0859V43.6293H143.577V42.8266H144.337V41.3498H145.311V42.8266H146.841V43.6293H145.311ZM155.465 41.2321V42.024H153.432V48.6911H152.458V42.024H150.414V41.2321H155.465ZM159.575 42.7196C160.017 42.7196 160.417 42.8159 160.774 43.0086C161.13 43.1941 161.408 43.4759 161.608 43.854C161.815 44.2321 161.919 44.6923 161.919 45.2345V48.6911H160.955V45.3736C160.955 44.7886 160.809 44.3427 160.517 44.0359C160.224 43.722 159.825 43.565 159.318 43.565C158.804 43.565 158.394 43.7256 158.087 44.0466C157.788 44.3677 157.638 44.835 157.638 45.4485V48.6911H156.664V40.7719H157.638V43.6614C157.831 43.3617 158.095 43.1299 158.43 42.9658C158.772 42.8017 159.154 42.7196 159.575 42.7196ZM164.483 43.7791C164.654 43.4438 164.897 43.1834 165.211 42.9979C165.532 42.8124 165.921 42.7196 166.377 42.7196V43.7256H166.121C165.029 43.7256 164.483 44.3177 164.483 45.502V48.6911H163.509V42.8266H164.483V43.7791ZM170.059 48.7874C169.51 48.7874 169.01 48.6626 168.561 48.4129C168.119 48.1632 167.769 47.81 167.512 47.3534C167.263 46.8897 167.138 46.3546 167.138 45.7482C167.138 45.1489 167.266 44.6209 167.523 44.1643C167.787 43.7006 168.144 43.3474 168.593 43.1049C169.043 42.8552 169.546 42.7303 170.102 42.7303C170.659 42.7303 171.161 42.8552 171.611 43.1049C172.06 43.3474 172.414 43.697 172.67 44.1536C172.934 44.6102 173.066 45.1417 173.066 45.7482C173.066 46.3546 172.931 46.8897 172.66 47.3534C172.396 47.81 172.035 48.1632 171.579 48.4129C171.122 48.6626 170.616 48.7874 170.059 48.7874ZM170.059 47.9313C170.409 47.9313 170.737 47.8492 171.044 47.6852C171.351 47.5211 171.597 47.2749 171.782 46.9467C171.975 46.6186 172.071 46.219 172.071 45.7482C172.071 45.2773 171.978 44.8778 171.793 44.5496C171.607 44.2214 171.365 43.9788 171.065 43.8219C170.766 43.6578 170.441 43.5758 170.091 43.5758C169.735 43.5758 169.406 43.6578 169.107 43.8219C168.814 43.9788 168.579 44.2214 168.4 44.5496C168.222 44.8778 168.133 45.2773 168.133 45.7482C168.133 46.2262 168.219 46.6293 168.39 46.9574C168.568 47.2856 168.804 47.5318 169.096 47.6959C169.389 47.8528 169.71 47.9313 170.059 47.9313ZM179.548 42.8266V48.6911H178.574V47.8243C178.388 48.1239 178.128 48.3594 177.793 48.5306C177.465 48.6947 177.101 48.7767 176.701 48.7767C176.245 48.7767 175.834 48.684 175.47 48.4985C175.107 48.3058 174.818 48.0205 174.604 47.6423C174.397 47.2642 174.293 46.8041 174.293 46.2618V42.8266H175.256V46.1334C175.256 46.7113 175.403 47.1572 175.695 47.4711C175.988 47.7779 176.387 47.9313 176.894 47.9313C177.415 47.9313 177.825 47.7708 178.124 47.4497C178.424 47.1287 178.574 46.6614 178.574 46.0478V42.8266H179.548ZM183.611 42.7303C184.117 42.7303 184.559 42.8409 184.938 43.0621C185.323 43.2832 185.608 43.5615 185.794 43.8968V42.8266H186.778V48.8195C186.778 49.3546 186.664 49.829 186.436 50.2428C186.208 50.6638 185.879 50.9919 185.451 51.2274C185.03 51.4628 184.538 51.5805 183.974 51.5805C183.204 51.5805 182.562 51.3986 182.048 51.0347C181.534 50.6709 181.231 50.1751 181.139 49.5472H182.102C182.209 49.9039 182.43 50.1893 182.765 50.4034C183.1 50.6245 183.504 50.7351 183.974 50.7351C184.51 50.7351 184.945 50.5674 185.28 50.2321C185.622 49.8968 185.794 49.4259 185.794 48.8195V47.5888C185.601 47.9313 185.316 48.2167 184.938 48.445C184.559 48.6733 184.117 48.7874 183.611 48.7874C183.09 48.7874 182.615 48.659 182.187 48.4022C181.766 48.1453 181.435 47.785 181.192 47.3213C180.949 46.8576 180.828 46.3296 180.828 45.7375C180.828 45.1382 180.949 44.6138 181.192 44.1643C181.435 43.7077 181.766 43.3546 182.187 43.1049C182.615 42.8552 183.09 42.7303 183.611 42.7303ZM185.794 45.7482C185.794 45.3058 185.705 44.9206 185.526 44.5924C185.348 44.2642 185.105 44.0145 184.798 43.8433C184.499 43.6649 184.167 43.5758 183.803 43.5758C183.439 43.5758 183.108 43.6614 182.808 43.8326C182.508 44.0038 182.269 44.2535 182.091 44.5817C181.913 44.9099 181.823 45.2951 181.823 45.7375C181.823 46.1869 181.913 46.5793 182.091 46.9146C182.269 47.2428 182.508 47.4961 182.808 47.6745C183.108 47.8457 183.439 47.9313 183.803 47.9313C184.167 47.9313 184.499 47.8457 184.798 47.6745C185.105 47.4961 185.348 47.2428 185.526 46.9146C185.705 46.5793 185.794 46.1905 185.794 45.7482ZM191.335 42.7196C191.777 42.7196 192.177 42.8159 192.533 43.0086C192.89 43.1941 193.168 43.4759 193.368 43.854C193.575 44.2321 193.678 44.6923 193.678 45.2345V48.6911H192.715V45.3736C192.715 44.7886 192.569 44.3427 192.277 44.0359C191.984 43.722 191.584 43.565 191.078 43.565C190.564 43.565 190.154 43.7256 189.847 44.0466C189.548 44.3677 189.398 44.835 189.398 45.4485V48.6911H188.424V40.7719H189.398V43.6614C189.59 43.3617 189.854 43.1299 190.19 42.9658C190.532 42.8017 190.914 42.7196 191.335 42.7196ZM202.167 48.6911L199.096 45.288V48.6911H198.122V41.2321H199.096V44.6887L202.178 41.2321H203.409L200.027 44.967L203.441 48.6911H202.167ZM207.386 42.7196C208.099 42.7196 208.677 42.9372 209.12 43.3724C209.562 43.8005 209.783 44.4212 209.783 45.2345V48.6911H208.82V45.3736C208.82 44.7886 208.674 44.3427 208.381 44.0359C208.089 43.722 207.689 43.565 207.183 43.565C206.669 43.565 206.259 43.7256 205.952 44.0466C205.652 44.3677 205.502 44.835 205.502 45.4485V48.6911H204.529V42.8266H205.502V43.6614C205.695 43.3617 205.955 43.1299 206.284 42.9658C206.619 42.8017 206.986 42.7196 207.386 42.7196ZM213.931 48.7874C213.382 48.7874 212.883 48.6626 212.433 48.4129C211.991 48.1632 211.641 47.81 211.385 47.3534C211.135 46.8897 211.01 46.3546 211.01 45.7482C211.01 45.1489 211.138 44.6209 211.395 44.1643C211.659 43.7006 212.016 43.3474 212.465 43.1049C212.915 42.8552 213.418 42.7303 213.974 42.7303C214.531 42.7303 215.034 42.8552 215.483 43.1049C215.933 43.3474 216.286 43.697 216.543 44.1536C216.807 44.6102 216.939 45.1417 216.939 45.7482C216.939 46.3546 216.803 46.8897 216.532 47.3534C216.268 47.81 215.908 48.1632 215.451 48.4129C214.995 48.6626 214.488 48.7874 213.931 48.7874ZM213.931 47.9313C214.281 47.9313 214.609 47.8492 214.916 47.6852C215.223 47.5211 215.469 47.2749 215.654 46.9467C215.847 46.6186 215.943 46.219 215.943 45.7482C215.943 45.2773 215.851 44.8778 215.665 44.5496C215.48 44.2214 215.237 43.9788 214.937 43.8219C214.638 43.6578 214.313 43.5758 213.964 43.5758C213.607 43.5758 213.279 43.6578 212.979 43.8219C212.687 43.9788 212.451 44.2214 212.273 44.5496C212.094 44.8778 212.005 45.2773 212.005 45.7482C212.005 46.2262 212.091 46.6293 212.262 46.9574C212.44 47.2856 212.676 47.5318 212.968 47.6959C213.261 47.8528 213.582 47.9313 213.931 47.9313ZM226.031 42.8266L224.201 48.6911H223.195L221.783 44.0359L220.37 48.6911H219.364L217.523 42.8266H218.519L219.867 47.7494L221.322 42.8266H222.318L223.741 47.7601L225.068 42.8266H226.031ZM227.972 40.7719V48.6911H226.998V40.7719H227.972ZM229.267 45.7375C229.267 45.1382 229.389 44.6138 229.631 44.1643C229.874 43.7077 230.206 43.3546 230.627 43.1049C231.055 42.8552 231.533 42.7303 232.061 42.7303C232.517 42.7303 232.942 42.8373 233.334 43.0514C233.726 43.2583 234.026 43.5329 234.233 43.8754V40.7719H235.217V48.6911H234.233V47.5888C234.04 47.9384 233.755 48.2274 233.377 48.4557C232.999 48.6768 232.556 48.7874 232.05 48.7874C231.529 48.7874 231.055 48.659 230.627 48.4022C230.206 48.1453 229.874 47.785 229.631 47.3213C229.389 46.8576 229.267 46.3296 229.267 45.7375ZM234.233 45.7482C234.233 45.3058 234.144 44.9206 233.965 44.5924C233.787 44.2642 233.544 44.0145 233.238 43.8433C232.938 43.6649 232.606 43.5758 232.242 43.5758C231.879 43.5758 231.547 43.6614 231.247 43.8326C230.948 44.0038 230.709 44.2535 230.53 44.5817C230.352 44.9099 230.263 45.2951 230.263 45.7375C230.263 46.1869 230.352 46.5793 230.53 46.9146C230.709 47.2428 230.948 47.4961 231.247 47.6745C231.547 47.8457 231.879 47.9313 232.242 47.9313C232.606 47.9313 232.938 47.8457 233.238 47.6745C233.544 47.4961 233.787 47.2428 233.965 46.9146C234.144 46.5793 234.233 46.1905 234.233 45.7482ZM239.282 42.7303C239.788 42.7303 240.231 42.8409 240.609 43.0621C240.994 43.2832 241.279 43.5615 241.465 43.8968V42.8266H242.449V48.8195C242.449 49.3546 242.335 49.829 242.107 50.2428C241.879 50.6638 241.55 50.9919 241.122 51.2274C240.701 51.4628 240.209 51.5805 239.646 51.5805C238.875 51.5805 238.233 51.3986 237.719 51.0347C237.206 50.6709 236.902 50.1751 236.81 49.5472H237.773C237.88 49.9039 238.101 50.1893 238.436 50.4034C238.772 50.6245 239.175 50.7351 239.646 50.7351C240.181 50.7351 240.616 50.5674 240.951 50.2321C241.294 49.8968 241.465 49.4259 241.465 48.8195V47.5888C241.272 47.9313 240.987 48.2167 240.609 48.445C240.231 48.6733 239.788 48.7874 239.282 48.7874C238.761 48.7874 238.286 48.659 237.858 48.4022C237.438 48.1453 237.106 47.785 236.863 47.3213C236.621 46.8576 236.499 46.3296 236.499 45.7375C236.499 45.1382 236.621 44.6138 236.863 44.1643C237.106 43.7077 237.438 43.3546 237.858 43.1049C238.286 42.8552 238.761 42.7303 239.282 42.7303ZM241.465 45.7482C241.465 45.3058 241.376 44.9206 241.197 44.5924C241.019 44.2642 240.776 44.0145 240.47 43.8433C240.17 43.6649 239.838 43.5758 239.474 43.5758C239.111 43.5758 238.779 43.6614 238.479 43.8326C238.179 44.0038 237.94 44.2535 237.762 44.5817C237.584 44.9099 237.495 45.2951 237.495 45.7375C237.495 46.1869 237.584 46.5793 237.762 46.9146C237.94 47.2428 238.179 47.4961 238.479 47.6745C238.779 47.8457 239.111 47.9313 239.474 47.9313C239.838 47.9313 240.17 47.8457 240.47 47.6745C240.776 47.4961 241.019 47.2428 241.197 46.9146C241.376 46.5793 241.465 46.1905 241.465 45.7482ZM249.446 45.5341C249.446 45.7196 249.435 45.9158 249.414 46.1227H244.727C244.762 46.7006 244.958 47.1536 245.315 47.4818C245.679 47.8029 246.118 47.9634 246.631 47.9634C247.052 47.9634 247.402 47.8671 247.68 47.6745C247.966 47.4747 248.165 47.2107 248.279 46.8825H249.328C249.171 47.4462 248.857 47.9063 248.386 48.263C247.916 48.6126 247.331 48.7874 246.631 48.7874C246.075 48.7874 245.575 48.6626 245.133 48.4129C244.698 48.1632 244.356 47.81 244.106 47.3534C243.856 46.8897 243.731 46.3546 243.731 45.7482C243.731 45.1417 243.853 44.6102 244.095 44.1536C244.338 43.697 244.677 43.3474 245.112 43.1049C245.554 42.8552 246.061 42.7303 246.631 42.7303C247.188 42.7303 247.68 42.8516 248.108 43.0942C248.536 43.3367 248.864 43.6721 249.093 44.1001C249.328 44.5211 249.446 44.9991 249.446 45.5341ZM248.44 45.3308C248.44 44.9598 248.358 44.6423 248.194 44.3784C248.03 44.1073 247.805 43.9039 247.52 43.7684C247.241 43.6257 246.931 43.5543 246.589 43.5543C246.096 43.5543 245.675 43.7113 245.326 44.0252C244.983 44.3391 244.787 44.7743 244.737 45.3308H248.44Z" fill="#27227A"/>
<path d="M76.3451 16.9698V19.902H72.3641V31.9948H68.7041V19.902H64.7231V16.9698H76.3451ZM85.5232 19.9234C86.893 19.9234 87.9917 20.38 88.8192 21.2932C89.6468 22.1921 90.0606 23.4335 90.0606 25.0173V31.9948H86.4221V25.5096C86.4221 24.7106 86.2152 24.0899 85.8014 23.6475C85.3876 23.2052 84.8311 22.984 84.132 22.984C83.4328 22.984 82.8763 23.2052 82.4625 23.6475C82.0487 24.0899 81.8418 24.7106 81.8418 25.5096V31.9948H78.1819V16.1564H81.8418V21.657C82.2128 21.1291 82.7193 20.7082 83.3614 20.3943C84.0035 20.0803 84.7241 19.9234 85.5232 19.9234ZM94.4446 18.8104C93.8025 18.8104 93.2745 18.6249 92.8608 18.2539C92.4612 17.8687 92.2615 17.3978 92.2615 16.8413C92.2615 16.2706 92.4612 15.7997 92.8608 15.4287C93.2745 15.0435 93.8025 14.8508 94.4446 14.8508C95.0724 14.8508 95.5861 15.0435 95.9856 15.4287C96.3994 15.7997 96.6063 16.2706 96.6063 16.8413C96.6063 17.3978 96.3994 17.8687 95.9856 18.2539C95.5861 18.6249 95.0724 18.8104 94.4446 18.8104ZM96.2639 20.0518V31.9948H92.6039V20.0518H96.2639ZM102.576 22.0423C103.004 21.3859 103.539 20.8723 104.181 20.5013C104.823 20.116 105.537 19.9234 106.322 19.9234V23.7974H105.316C104.403 23.7974 103.718 23.9971 103.261 24.3966C102.804 24.7819 102.576 25.4668 102.576 26.4514V31.9948H98.9162V20.0518H102.576V22.0423ZM119.864 20.0518V31.9948H116.204V30.3681C115.833 30.8961 115.327 31.3241 114.685 31.6523C114.057 31.9662 113.358 32.1232 112.587 32.1232C111.674 32.1232 110.868 31.9234 110.169 31.5239C109.469 31.1101 108.927 30.5179 108.542 29.7474C108.157 28.9769 107.964 28.0709 107.964 27.0292V20.0518H111.603V26.537C111.603 27.336 111.809 27.9567 112.223 28.399C112.637 28.8414 113.194 29.0625 113.893 29.0625C114.606 29.0625 115.17 28.8414 115.584 28.399C115.997 27.9567 116.204 27.336 116.204 26.537V20.0518H119.864ZM123.328 16.9698H127.073L124.676 22.7058H122.215L123.328 16.9698ZM134.082 32.166C133.04 32.166 132.113 31.9876 131.299 31.6309C130.486 31.2742 129.844 30.7891 129.373 30.1755C128.902 29.5477 128.638 28.8485 128.581 28.078H132.198C132.241 28.4918 132.434 28.8271 132.776 29.0839C133.119 29.3408 133.54 29.4692 134.039 29.4692C134.496 29.4692 134.845 29.3836 135.088 29.2124C135.345 29.0269 135.473 28.7914 135.473 28.5061C135.473 28.1636 135.295 27.9139 134.938 27.7569C134.581 27.5857 134.003 27.4002 133.204 27.2005C132.348 27.0007 131.635 26.7938 131.064 26.5798C130.493 26.3515 130.001 26.0019 129.587 25.531C129.173 25.0459 128.967 24.3966 128.967 23.5833C128.967 22.8984 129.152 22.2777 129.523 21.7213C129.908 21.1505 130.465 20.701 131.192 20.3729C131.934 20.0447 132.812 19.8806 133.825 19.8806C135.323 19.8806 136.5 20.2516 137.357 20.9935C138.227 21.7355 138.726 22.7201 138.855 23.9472H135.473C135.416 23.5334 135.231 23.2052 134.917 22.9626C134.617 22.7201 134.217 22.5988 133.718 22.5988C133.29 22.5988 132.962 22.6844 132.733 22.8556C132.505 23.0126 132.391 23.2337 132.391 23.5191C132.391 23.8616 132.569 24.1184 132.926 24.2896C133.297 24.4609 133.868 24.6321 134.638 24.8033C135.523 25.0316 136.244 25.2599 136.8 25.4882C137.357 25.7022 137.842 26.059 138.255 26.5584C138.684 27.0435 138.905 27.6999 138.919 28.5275C138.919 29.2266 138.719 29.8545 138.32 30.4109C137.934 30.9531 137.371 31.3812 136.629 31.6951C135.901 32.009 135.052 32.166 134.082 32.166ZM149.354 16.9698V31.9948H145.694V16.9698H149.354ZM161.359 29.3408H155.752L154.853 31.9948H151.021L156.458 16.9698H160.696L166.132 31.9948H162.258L161.359 29.3408ZM160.417 26.5156L158.555 21.015L156.715 26.5156H160.417ZM173.223 32.1446C172.124 32.1446 171.14 31.9662 170.269 31.6095C169.399 31.2528 168.7 30.7248 168.172 30.0257C167.658 29.3265 167.387 28.4846 167.359 27.5001H171.254C171.311 28.0566 171.504 28.4846 171.832 28.7843C172.16 29.0697 172.588 29.2124 173.116 29.2124C173.658 29.2124 174.086 29.0911 174.4 28.8485C174.714 28.5917 174.871 28.2421 174.871 27.7997C174.871 27.4288 174.743 27.122 174.486 26.8794C174.243 26.6368 173.936 26.4371 173.565 26.2801C173.209 26.1232 172.695 25.9448 172.024 25.745C171.054 25.4454 170.262 25.1458 169.649 24.8461C169.035 24.5465 168.507 24.1041 168.065 23.5191C167.623 22.9341 167.401 22.1707 167.401 21.229C167.401 19.8306 167.908 18.7391 168.921 17.9543C169.934 17.1553 171.254 16.7557 172.881 16.7557C174.536 16.7557 175.87 17.1553 176.883 17.9543C177.896 18.7391 178.438 19.8378 178.51 21.2504H174.55C174.521 20.7652 174.343 20.3871 174.015 20.116C173.687 19.8306 173.266 19.688 172.752 19.688C172.31 19.688 171.953 19.8092 171.682 20.0518C171.411 20.2801 171.275 20.6154 171.275 21.0578C171.275 21.5429 171.504 21.921 171.96 22.1921C172.417 22.4632 173.13 22.7557 174.101 23.0697C175.071 23.3978 175.856 23.7117 176.455 24.0114C177.068 24.311 177.596 24.7462 178.039 25.317C178.481 25.8877 178.702 26.6226 178.702 27.5215C178.702 28.3776 178.481 29.1553 178.039 29.8545C177.611 30.5536 176.983 31.1101 176.155 31.5239C175.328 31.9377 174.35 32.1446 173.223 32.1446ZM194.843 29.3408H189.236L188.337 31.9948H184.506L189.942 16.9698H194.18L199.616 31.9948H195.742L194.843 29.3408ZM193.902 26.5156L192.04 21.015L190.199 26.5156H193.902ZM200.543 26.0233C200.543 24.7819 200.793 23.6975 201.292 22.77C201.806 21.8425 202.512 21.1291 203.411 20.6297C204.324 20.1303 205.366 19.8806 206.536 19.8806C208.034 19.8806 209.283 20.273 210.282 21.0578C211.295 21.8425 211.958 22.9484 212.272 24.3752H208.377C208.049 23.462 207.414 23.0054 206.472 23.0054C205.801 23.0054 205.266 23.2694 204.867 23.7974C204.467 24.311 204.267 25.053 204.267 26.0233C204.267 26.9936 204.467 27.7427 204.867 28.2706C205.266 28.7843 205.801 29.0411 206.472 29.0411C207.414 29.0411 208.049 28.5845 208.377 27.6713H212.272C211.958 29.0697 211.295 30.1684 210.282 30.9674C209.268 31.7665 208.02 32.166 206.536 32.166C205.366 32.166 204.324 31.9163 203.411 31.4169C202.512 30.9175 201.806 30.204 201.292 29.2766C200.793 28.3491 200.543 27.2647 200.543 26.0233ZM213.502 26.0019C213.502 24.7748 213.73 23.6975 214.187 22.77C214.658 21.8425 215.293 21.1291 216.092 20.6297C216.891 20.1303 217.783 19.8806 218.767 19.8806C219.609 19.8806 220.344 20.0518 220.972 20.3943C221.614 20.7367 222.106 21.1862 222.449 21.7427V20.0518H226.109V31.9948H222.449V30.3039C222.092 30.8604 221.592 31.3099 220.95 31.6523C220.323 31.9948 219.588 32.166 218.746 32.166C217.776 32.166 216.891 31.9163 216.092 31.4169C215.293 30.9032 214.658 30.1826 214.187 29.2552C213.73 28.3134 213.502 27.229 213.502 26.0019ZM222.449 26.0233C222.449 25.1101 222.192 24.3895 221.678 23.8616C221.179 23.3336 220.565 23.0697 219.837 23.0697C219.11 23.0697 218.489 23.3336 217.975 23.8616C217.476 24.3752 217.226 25.0887 217.226 26.0019C217.226 26.9151 217.476 27.6428 217.975 28.185C218.489 28.7129 219.11 28.9769 219.837 28.9769C220.565 28.9769 221.179 28.7129 221.678 28.185C222.192 27.6571 222.449 26.9365 222.449 26.0233ZM228.029 26.0019C228.029 24.7748 228.257 23.6975 228.714 22.77C229.184 21.8425 229.819 21.1291 230.618 20.6297C231.417 20.1303 232.309 19.8806 233.294 19.8806C234.079 19.8806 234.792 20.0447 235.434 20.3729C236.09 20.701 236.604 21.1434 236.975 21.6999V16.1564H240.635V31.9948H236.975V30.2825C236.633 30.8533 236.14 31.3099 235.498 31.6523C234.87 31.9948 234.136 32.166 233.294 32.166C232.309 32.166 231.417 31.9163 230.618 31.4169C229.819 30.9032 229.184 30.1826 228.714 29.2552C228.257 28.3134 228.029 27.229 228.029 26.0019ZM236.975 26.0233C236.975 25.1101 236.718 24.3895 236.205 23.8616C235.705 23.3336 235.092 23.0697 234.364 23.0697C233.636 23.0697 233.016 23.3336 232.502 23.8616C232.002 24.3752 231.753 25.0887 231.753 26.0019C231.753 26.9151 232.002 27.6428 232.502 28.185C233.016 28.7129 233.636 28.9769 234.364 28.9769C235.092 28.9769 235.705 28.7129 236.205 28.185C236.718 27.6571 236.975 26.9365 236.975 26.0233ZM254.541 25.8307C254.541 26.1731 254.52 26.5298 254.477 26.9008H246.194C246.251 27.6428 246.486 28.2135 246.9 28.6131C247.328 28.9983 247.849 29.191 248.462 29.191C249.376 29.191 250.011 28.8057 250.367 28.0352H254.263C254.063 28.82 253.699 29.5263 253.171 30.1541C252.657 30.7819 252.008 31.2742 251.223 31.6309C250.439 31.9876 249.561 32.166 248.591 32.166C247.421 32.166 246.379 31.9163 245.466 31.4169C244.553 30.9175 243.839 30.204 243.326 29.2766C242.812 28.3491 242.555 27.2647 242.555 26.0233C242.555 24.7819 242.805 23.6975 243.304 22.77C243.818 21.8425 244.531 21.1291 245.445 20.6297C246.358 20.1303 247.407 19.8806 248.591 19.8806C249.747 19.8806 250.774 20.1232 251.673 20.6083C252.572 21.0934 253.271 21.7855 253.77 22.6844C254.284 23.5833 254.541 24.6321 254.541 25.8307ZM250.795 24.8675C250.795 24.2397 250.581 23.7403 250.153 23.3693C249.725 22.9983 249.19 22.8128 248.548 22.8128C247.934 22.8128 247.414 22.9912 246.986 23.3479C246.572 23.7046 246.315 24.2112 246.215 24.8675H250.795ZM271.711 19.9234C273.195 19.9234 274.372 20.3729 275.242 21.2718C276.127 22.1707 276.569 23.4192 276.569 25.0173V31.9948H272.931V25.5096C272.931 24.7391 272.724 24.1469 272.31 23.7332C271.911 23.3051 271.354 23.0911 270.641 23.0911C269.927 23.0911 269.364 23.3051 268.95 23.7332C268.55 24.1469 268.35 24.7391 268.35 25.5096V31.9948H264.712V25.5096C264.712 24.7391 264.505 24.1469 264.091 23.7332C263.692 23.3051 263.135 23.0911 262.422 23.0911C261.708 23.0911 261.145 23.3051 260.731 23.7332C260.331 24.1469 260.132 24.7391 260.132 25.5096V31.9948H256.472V20.0518H260.132V21.55C260.503 21.0506 260.988 20.6582 261.587 20.3729C262.186 20.0732 262.864 19.9234 263.62 19.9234C264.519 19.9234 265.318 20.116 266.018 20.5013C266.731 20.8865 267.287 21.4359 267.687 22.1493C268.101 21.493 268.664 20.9579 269.378 20.5441C270.091 20.1303 270.869 19.9234 271.711 19.9234ZM291.329 20.0518L283.838 37.6666H279.899L282.639 31.5881L277.781 20.0518H281.869L284.63 27.5215L287.369 20.0518H291.329Z" fill="#27227A"/>
</svg>
