<svg width="24" height="25" viewBox="0 0 24 25" fill="none" xmlns="http://www.w3.org/2000/svg">
<path d="M15.1535 11.7195L14.1102 12.786C13.2756 13.6206 12.754 14.3277 12.754 16.0665H10.4356V15.4869C10.4356 14.2002 10.9572 13.041 11.7918 12.2064L13.2292 10.7458C13.6581 10.3285 13.9131 9.74891 13.9131 9.11136C13.9131 7.82466 12.8699 6.79299 11.5948 6.79299C10.9799 6.79299 10.3902 7.03724 9.95543 7.47202C9.52066 7.9068 9.2764 8.49649 9.2764 9.11136H6.95803C6.95803 7.88162 7.44654 6.70225 8.3161 5.83269C9.18566 4.96313 10.365 4.47462 11.5948 4.47462C12.8245 4.47462 14.0039 4.96313 14.8734 5.83269C15.743 6.70225 16.2315 7.88162 16.2315 9.11136C16.2315 10.1314 15.8142 11.0472 15.1535 11.7195ZM12.754 20.7032H10.4356V18.3848H12.754V20.7032ZM11.5948 0.99707C10.0725 0.99707 8.56515 1.2969 7.15876 1.87945C5.75238 2.46199 4.4745 3.31584 3.3981 4.39224C1.22421 6.56613 0.00292969 9.51456 0.00292969 12.5889C0.00292969 15.6633 1.22421 18.6117 3.3981 20.7856C4.4745 21.862 5.75238 22.7158 7.15876 23.2984C8.56515 23.8809 10.0725 24.1807 11.5948 24.1807C14.6691 24.1807 17.6175 22.9595 19.7914 20.7856C21.9653 18.6117 23.1866 15.6633 23.1866 12.5889C23.1866 6.17862 17.9703 0.99707 11.5948 0.99707Z" fill="#27227A"/>
</svg>
