<svg width="50" height="49" viewBox="0 0 50 49" fill="none" xmlns="http://www.w3.org/2000/svg">
<path d="M29.632 8.53583C30.0578 7.57962 29.6299 6.45066 28.6401 6.11018C24.5393 4.69962 20.093 4.55089 15.8834 5.70796C11.0624 7.03306 6.84996 9.9888 3.96391 14.0715C1.07786 18.1543 -0.303273 23.1114 0.0558407 28.0983C0.414954 33.0852 2.4921 37.7933 5.93335 41.4204C9.37459 45.0475 13.967 47.3692 18.9282 47.9899C23.8893 48.6105 28.9122 47.4918 33.1409 44.8243C37.3697 42.1568 40.5427 38.1055 42.1193 33.3608C43.496 29.2178 43.5811 24.7699 42.388 20.6006C42.1 19.5943 40.9951 19.1076 40.0178 19.4826C39.0406 19.8576 38.5629 20.9524 38.8321 21.9639C39.7221 25.3086 39.6221 28.8551 38.5221 32.1655C37.222 36.078 34.6055 39.4186 31.1185 41.6182C27.6315 43.8178 23.4897 44.7403 19.3987 44.2285C15.3078 43.7167 11.5209 41.8023 8.68327 38.8114C5.84563 35.8205 4.13283 31.9382 3.8367 27.826C3.54058 23.7139 4.67946 19.6262 7.05928 16.2596C9.43911 12.893 12.9126 10.4557 16.888 9.36305C20.2516 8.43853 23.7985 8.52501 27.0917 9.58953C28.0878 9.91148 29.2061 9.49205 29.632 8.53583Z" fill="#27227A"/>
<path d="M24.1877 17.2736C24.9492 16.26 24.4119 14.8292 23.1477 14.7342C20.8899 14.5647 18.3371 14.7426 16.6523 15.4838C14.2443 16.5433 12.2491 18.3615 10.9712 20.661C9.69329 22.9606 9.20287 25.615 9.57478 28.2194C9.94668 30.8237 11.1605 33.2348 13.0309 35.0847C14.9014 36.9346 17.3258 38.1217 19.934 38.4648C22.5423 38.808 25.1912 38.2882 27.4765 36.985C29.7617 35.6818 31.5578 33.6667 32.5906 31.2471C33.3073 29.5681 33.6042 27.0736 33.505 24.8512C33.4461 23.5335 31.9886 22.9489 30.8978 23.6907C30.2396 24.1382 29.9515 24.9482 30.0236 25.7409C30.1512 27.1443 29.9307 28.5647 29.3721 29.8733C28.6392 31.5903 27.3646 33.0203 25.7429 33.9451C24.1212 34.8699 22.2414 35.2387 20.3905 34.9952C18.5395 34.7517 16.8191 33.9093 15.4918 32.5966C14.1644 31.2838 13.303 29.5728 13.0391 27.7246C12.7752 25.8765 13.1232 23.9928 14.0301 22.361C14.9369 20.7291 16.3528 19.4388 18.0616 18.687C19.4163 18.091 20.8961 17.8593 22.3559 18.0051C23.0537 18.0748 23.7665 17.8343 24.1877 17.2736Z" fill="#27227A"/>
<path d="M17.6691 24.837C19.0121 21.5176 22.3912 21.808 23.9128 22.3681L34.3438 12.0193L34.7775 7.44942L42.7033 0L42.6737 7.48065L49.3232 7.50695L41.8129 14.958L37.2414 14.9399L35.9897 16.1818L26.3949 25.287C26.3923 25.9519 26.1102 27.2253 25.9695 27.7789C24.9576 31.4322 21.3853 30.947 19.7257 30.2478C17.0712 28.9074 17.2486 26.0821 17.6691 24.837Z" fill="#27227A"/>
</svg>
