<svg width="65" height="63" viewBox="0 0 65 63" fill="none" xmlns="http://www.w3.org/2000/svg">
<path d="M38.7651 11.1667C39.3222 9.9158 38.7624 8.43888 37.4675 7.99346C32.1028 6.14813 26.2861 5.95356 20.7789 7.46726C14.472 9.20079 8.96125 13.0675 5.18567 18.4087C1.41008 23.7498 -0.396748 30.2348 0.0730518 36.7587C0.542851 43.2827 3.26021 49.4419 7.76212 54.187C12.264 58.932 18.2719 61.9693 24.7622 62.7813C31.2524 63.5932 37.8234 62.1297 43.3556 58.64C48.8877 55.1503 53.0387 49.8504 55.1013 43.6433C56.9023 38.2233 57.0137 32.4044 55.4528 26.9501C55.0761 25.6336 53.6306 24.9969 52.3521 25.4875C51.0736 25.9781 50.4488 27.4103 50.8009 28.7337C51.9652 33.1092 51.8344 37.7488 50.3953 42.0795C48.6945 47.1979 45.2716 51.5682 40.7098 54.4458C36.148 57.3233 30.7296 58.5302 25.3778 57.8606C20.026 57.191 15.0719 54.6865 11.3596 50.7738C7.64736 46.861 5.40664 41.7822 5.01925 36.4026C4.63185 31.0229 6.12175 25.6754 9.23509 21.2712C12.3484 16.8669 16.8926 13.6784 22.0932 12.2489C26.4936 11.0394 31.1336 11.1526 35.4419 12.5452C36.745 12.9664 38.208 12.4177 38.7651 11.1667Z" fill="#CB2C31"/>
<path d="M31.6428 22.5976C32.639 21.2716 31.9362 19.3998 30.2823 19.2756C27.3286 19.0539 23.9889 19.2865 21.7848 20.2563C18.6347 21.6423 16.0245 24.0209 14.3527 27.0292C12.681 30.0374 12.0394 33.5101 12.5259 36.9171C13.0124 40.3241 14.6004 43.4784 17.0473 45.8985C19.4943 48.3186 22.6659 49.8716 26.0781 50.3204C29.4903 50.7693 32.9556 50.0894 35.9452 48.3845C38.9348 46.6796 41.2845 44.0434 42.6357 40.8781C43.5733 38.6816 43.9616 35.4182 43.8318 32.5109C43.7549 30.787 41.848 30.0223 40.4211 30.9926C39.56 31.5781 39.1832 32.6378 39.2775 33.6748C39.4444 35.5107 39.1559 37.3689 38.4251 39.0808C37.4663 41.327 35.7989 43.1978 33.6773 44.4076C31.5558 45.6175 29.0966 46.1 26.6752 45.7814C24.2538 45.4629 22.0031 44.3608 20.2666 42.6434C18.5301 40.926 17.4033 38.6877 17.058 36.2699C16.7128 33.8521 17.168 31.3878 18.3544 29.253C19.5408 27.1182 21.393 25.4303 23.6285 24.4467C25.4008 23.6669 27.3367 23.3639 29.2464 23.5546C30.1593 23.6458 31.0918 23.3311 31.6428 22.5976Z" fill="#CB2C31"/>
<path d="M23.1151 32.4923C24.8721 28.1497 29.2926 28.5296 31.2832 29.2624L44.9292 15.7239L45.4965 9.74548L55.8653 0L55.8266 9.78633L64.5255 9.82074L54.7005 19.5684L48.7199 19.5447L47.0824 21.1693L34.5304 33.0809C34.5269 33.9508 34.1579 35.6167 33.9738 36.3409C32.65 41.1202 27.9767 40.4855 25.8055 39.5707C22.3328 37.8172 22.5649 34.1211 23.1151 32.4923Z" fill="#CB2C31"/>
</svg>
