<svg width="382" height="69" viewBox="0 0 382 69" fill="none" xmlns="http://www.w3.org/2000/svg">
<path d="M38.7651 11.1667C39.3222 9.9158 38.7624 8.43888 37.4675 7.99346C32.1028 6.14813 26.2861 5.95356 20.7789 7.46726C14.472 9.20079 8.96125 13.0675 5.18567 18.4087C1.41008 23.7498 -0.396748 30.2348 0.0730518 36.7587C0.542851 43.2827 3.26021 49.4419 7.76212 54.187C12.264 58.932 18.2719 61.9693 24.7622 62.7813C31.2524 63.5932 37.8234 62.1297 43.3556 58.64C48.8877 55.1503 53.0387 49.8504 55.1013 43.6433C56.9023 38.2233 57.0137 32.4044 55.4528 26.9501C55.0761 25.6336 53.6306 24.9969 52.3521 25.4875C51.0736 25.9781 50.4488 27.4103 50.8009 28.7337C51.9652 33.1092 51.8344 37.7488 50.3953 42.0795C48.6945 47.1979 45.2716 51.5682 40.7098 54.4458C36.148 57.3233 30.7296 58.5302 25.3778 57.8606C20.026 57.191 15.0719 54.6865 11.3596 50.7738C7.64736 46.861 5.40664 41.7822 5.01925 36.4026C4.63185 31.0229 6.12175 25.6754 9.23509 21.2712C12.3484 16.8669 16.8926 13.6784 22.0932 12.2489C26.4936 11.0394 31.1336 11.1526 35.4419 12.5452C36.745 12.9664 38.208 12.4177 38.7651 11.1667Z" fill="#FDFDFD"/>
<path d="M31.6428 22.5976C32.639 21.2716 31.9362 19.3998 30.2823 19.2756C27.3286 19.0539 23.9889 19.2865 21.7848 20.2563C18.6347 21.6423 16.0245 24.0209 14.3527 27.0292C12.681 30.0374 12.0394 33.5101 12.5259 36.9171C13.0124 40.3241 14.6004 43.4784 17.0473 45.8985C19.4943 48.3186 22.6659 49.8716 26.0781 50.3204C29.4903 50.7693 32.9556 50.0894 35.9452 48.3845C38.9348 46.6796 41.2845 44.0434 42.6357 40.8781C43.5733 38.6816 43.9616 35.4182 43.8318 32.5109C43.7549 30.787 41.848 30.0223 40.4211 30.9926C39.56 31.5781 39.1832 32.6378 39.2775 33.6748C39.4444 35.5107 39.1559 37.3689 38.4251 39.0808C37.4663 41.327 35.7989 43.1978 33.6773 44.4076C31.5558 45.6175 29.0966 46.1 26.6752 45.7814C24.2538 45.4629 22.0031 44.3608 20.2666 42.6434C18.5301 40.926 17.4033 38.6877 17.058 36.2699C16.7128 33.8521 17.168 31.3878 18.3544 29.253C19.5408 27.1182 21.393 25.4303 23.6285 24.4467C25.4008 23.6669 27.3367 23.3639 29.2464 23.5546C30.1593 23.6458 31.0918 23.3311 31.6428 22.5976Z" fill="white"/>
<path d="M23.1151 32.4923C24.8721 28.1497 29.2926 28.5296 31.2832 29.2624L44.9292 15.7239L45.4965 9.74548L55.8653 0L55.8266 9.78633L64.5255 9.82074L54.7005 19.5684L48.7199 19.5447L47.0824 21.1693L34.5304 33.0809C34.5269 33.9508 34.1579 35.6167 33.9738 36.3409C32.65 41.1202 27.9767 40.4855 25.8055 39.5707C22.3328 37.8172 22.5649 34.1211 23.1151 32.4923Z" fill="white"/>
<path d="M92.688 54.032V57.76H96.752V58.96H92.688V62.8H97.232V64H91.232V52.832H97.232V54.032H92.688ZM109.979 55.072C110.662 55.072 111.27 55.216 111.803 55.504C112.336 55.7813 112.758 56.2027 113.067 56.768C113.376 57.3333 113.531 58.0213 113.531 58.832V64H112.091V59.04C112.091 58.1653 111.872 57.4987 111.435 57.04C111.008 56.5707 110.427 56.336 109.691 56.336C108.934 56.336 108.331 56.5813 107.883 57.072C107.435 57.552 107.211 58.2507 107.211 59.168V64H105.771V59.04C105.771 58.1653 105.552 57.4987 105.115 57.04C104.688 56.5707 104.107 56.336 103.371 56.336C102.614 56.336 102.011 56.5813 101.563 57.072C101.115 57.552 100.891 58.2507 100.891 59.168V64H99.4351V55.232H100.891V56.496C101.179 56.0373 101.563 55.6853 102.043 55.44C102.534 55.1947 103.072 55.072 103.659 55.072C104.395 55.072 105.046 55.2373 105.611 55.568C106.176 55.8987 106.598 56.384 106.875 57.024C107.12 56.4053 107.526 55.9253 108.091 55.584C108.656 55.2427 109.286 55.072 109.979 55.072ZM117.376 56.848C117.664 56.3467 118.09 55.9307 118.656 55.6C119.232 55.2587 119.898 55.088 120.656 55.088C121.434 55.088 122.138 55.2747 122.767 55.648C123.407 56.0213 123.909 56.5493 124.272 57.232C124.634 57.904 124.816 58.688 124.816 59.584C124.816 60.4693 124.634 61.2587 124.272 61.952C123.909 62.6453 123.407 63.184 122.767 63.568C122.138 63.952 121.434 64.144 120.656 64.144C119.909 64.144 119.248 63.9787 118.672 63.648C118.106 63.3067 117.674 62.8853 117.376 62.384V68.16H115.92V55.232H117.376V56.848ZM123.328 59.584C123.328 58.9227 123.194 58.3467 122.928 57.856C122.661 57.3653 122.298 56.992 121.84 56.736C121.392 56.48 120.896 56.352 120.352 56.352C119.818 56.352 119.322 56.4853 118.864 56.752C118.416 57.008 118.053 57.3867 117.776 57.888C117.509 58.3787 117.376 58.9493 117.376 59.6C117.376 60.2613 117.509 60.8427 117.776 61.344C118.053 61.8347 118.416 62.2133 118.864 62.48C119.322 62.736 119.818 62.864 120.352 62.864C120.896 62.864 121.392 62.736 121.84 62.48C122.298 62.2133 122.661 61.8347 122.928 61.344C123.194 60.8427 123.328 60.256 123.328 59.584ZM130.556 64.144C129.735 64.144 128.988 63.9573 128.316 63.584C127.655 63.2107 127.132 62.6827 126.748 62C126.375 61.3067 126.188 60.5067 126.188 59.6C126.188 58.704 126.38 57.9147 126.764 57.232C127.159 56.5387 127.692 56.0107 128.364 55.648C129.036 55.2747 129.788 55.088 130.62 55.088C131.452 55.088 132.204 55.2747 132.876 55.648C133.548 56.0107 134.076 56.5333 134.46 57.216C134.855 57.8987 135.052 58.6933 135.052 59.6C135.052 60.5067 134.849 61.3067 134.444 62C134.049 62.6827 133.511 63.2107 132.828 63.584C132.145 63.9573 131.388 64.144 130.556 64.144ZM130.556 62.864C131.079 62.864 131.569 62.7413 132.028 62.496C132.487 62.2507 132.855 61.8827 133.132 61.392C133.42 60.9013 133.564 60.304 133.564 59.6C133.564 58.896 133.425 58.2987 133.148 57.808C132.871 57.3173 132.508 56.9547 132.06 56.72C131.612 56.4747 131.127 56.352 130.604 56.352C130.071 56.352 129.58 56.4747 129.132 56.72C128.695 56.9547 128.343 57.3173 128.076 57.808C127.809 58.2987 127.676 58.896 127.676 59.6C127.676 60.3147 127.804 60.9173 128.06 61.408C128.327 61.8987 128.679 62.2667 129.116 62.512C129.553 62.7467 130.033 62.864 130.556 62.864ZM148.646 55.232L145.91 64H144.406L142.294 57.04L140.182 64H138.678L135.926 55.232H137.414L139.43 62.592L141.606 55.232H143.094L145.222 62.608L147.206 55.232H148.646ZM158.091 59.28C158.091 59.5573 158.075 59.8507 158.043 60.16H151.035C151.089 61.024 151.382 61.7013 151.915 62.192C152.459 62.672 153.115 62.912 153.883 62.912C154.513 62.912 155.035 62.768 155.451 62.48C155.878 62.1813 156.177 61.7867 156.347 61.296H157.915C157.681 62.1387 157.211 62.8267 156.507 63.36C155.803 63.8827 154.929 64.144 153.883 64.144C153.051 64.144 152.305 63.9573 151.643 63.584C150.993 63.2107 150.481 62.6827 150.107 62C149.734 61.3067 149.547 60.5067 149.547 59.6C149.547 58.6933 149.729 57.8987 150.091 57.216C150.454 56.5333 150.961 56.0107 151.611 55.648C152.273 55.2747 153.03 55.088 153.883 55.088C154.715 55.088 155.451 55.2693 156.091 55.632C156.731 55.9947 157.222 56.496 157.563 57.136C157.915 57.7653 158.091 58.48 158.091 59.28ZM156.587 58.976C156.587 58.4213 156.465 57.9467 156.219 57.552C155.974 57.1467 155.638 56.8427 155.211 56.64C154.795 56.4267 154.331 56.32 153.819 56.32C153.083 56.32 152.454 56.5547 151.931 57.024C151.419 57.4933 151.126 58.144 151.051 58.976H156.587ZM161.469 56.656C161.725 56.1547 162.088 55.7653 162.557 55.488C163.037 55.2107 163.619 55.072 164.301 55.072V56.576H163.917C162.285 56.576 161.469 57.4613 161.469 59.232V64H160.013V55.232H161.469V56.656ZM176.526 55.072C177.209 55.072 177.817 55.216 178.35 55.504C178.883 55.7813 179.305 56.2027 179.614 56.768C179.923 57.3333 180.078 58.0213 180.078 58.832V64H178.638V59.04C178.638 58.1653 178.419 57.4987 177.982 57.04C177.555 56.5707 176.974 56.336 176.238 56.336C175.481 56.336 174.878 56.5813 174.43 57.072C173.982 57.552 173.758 58.2507 173.758 59.168V64H172.318V59.04C172.318 58.1653 172.099 57.4987 171.662 57.04C171.235 56.5707 170.654 56.336 169.918 56.336C169.161 56.336 168.558 56.5813 168.11 57.072C167.662 57.552 167.438 58.2507 167.438 59.168V64H165.982V55.232H167.438V56.496C167.726 56.0373 168.11 55.6853 168.59 55.44C169.081 55.1947 169.619 55.072 170.206 55.072C170.942 55.072 171.593 55.2373 172.158 55.568C172.723 55.8987 173.145 56.384 173.422 57.024C173.667 56.4053 174.073 55.9253 174.638 55.584C175.203 55.2427 175.833 55.072 176.526 55.072ZM190.466 59.28C190.466 59.5573 190.45 59.8507 190.418 60.16H183.41C183.464 61.024 183.757 61.7013 184.29 62.192C184.834 62.672 185.49 62.912 186.258 62.912C186.888 62.912 187.41 62.768 187.826 62.48C188.253 62.1813 188.552 61.7867 188.722 61.296H190.29C190.056 62.1387 189.586 62.8267 188.882 63.36C188.178 63.8827 187.304 64.144 186.258 64.144C185.426 64.144 184.68 63.9573 184.018 63.584C183.368 63.2107 182.856 62.6827 182.482 62C182.109 61.3067 181.922 60.5067 181.922 59.6C181.922 58.6933 182.104 57.8987 182.466 57.216C182.829 56.5333 183.336 56.0107 183.986 55.648C184.648 55.2747 185.405 55.088 186.258 55.088C187.09 55.088 187.826 55.2693 188.466 55.632C189.106 55.9947 189.597 56.496 189.938 57.136C190.29 57.7653 190.466 58.48 190.466 59.28ZM188.962 58.976C188.962 58.4213 188.84 57.9467 188.594 57.552C188.349 57.1467 188.013 56.8427 187.586 56.64C187.17 56.4267 186.706 56.32 186.194 56.32C185.458 56.32 184.829 56.5547 184.306 57.024C183.794 57.4933 183.501 58.144 183.426 58.976H188.962ZM196.66 55.072C197.727 55.072 198.591 55.3973 199.252 56.048C199.914 56.688 200.244 57.616 200.244 58.832V64H198.804V59.04C198.804 58.1653 198.586 57.4987 198.148 57.04C197.711 56.5707 197.114 56.336 196.356 56.336C195.588 56.336 194.975 56.576 194.516 57.056C194.068 57.536 193.844 58.2347 193.844 59.152V64H192.388V55.232H193.844V56.48C194.132 56.032 194.522 55.6853 195.012 55.44C195.514 55.1947 196.063 55.072 196.66 55.072ZM204.399 56.432V61.6C204.399 62.0267 204.489 62.3307 204.671 62.512C204.852 62.6827 205.167 62.768 205.615 62.768H206.687V64H205.375C204.564 64 203.956 63.8133 203.551 63.44C203.145 63.0667 202.943 62.4533 202.943 61.6V56.432H201.807V55.232H202.943V53.024H204.399V55.232H206.687V56.432H204.399ZM219.58 52.848V54.032H216.54V64H215.084V54.032H212.028V52.848H219.58ZM225.725 55.072C226.386 55.072 226.983 55.216 227.517 55.504C228.05 55.7813 228.466 56.2027 228.765 56.768C229.074 57.3333 229.229 58.0213 229.229 58.832V64H227.789V59.04C227.789 58.1653 227.57 57.4987 227.133 57.04C226.695 56.5707 226.098 56.336 225.341 56.336C224.573 56.336 223.959 56.576 223.501 57.056C223.053 57.536 222.829 58.2347 222.829 59.152V64H221.373V52.16H222.829V56.48C223.117 56.032 223.511 55.6853 224.013 55.44C224.525 55.1947 225.095 55.072 225.725 55.072ZM233.063 56.656C233.319 56.1547 233.682 55.7653 234.151 55.488C234.631 55.2107 235.212 55.072 235.895 55.072V56.576H235.511C233.879 56.576 233.063 57.4613 233.063 59.232V64H231.607V55.232H233.063V56.656ZM241.4 64.144C240.578 64.144 239.832 63.9573 239.16 63.584C238.498 63.2107 237.976 62.6827 237.592 62C237.218 61.3067 237.032 60.5067 237.032 59.6C237.032 58.704 237.224 57.9147 237.608 57.232C238.002 56.5387 238.536 56.0107 239.208 55.648C239.88 55.2747 240.632 55.088 241.464 55.088C242.296 55.088 243.048 55.2747 243.72 55.648C244.392 56.0107 244.92 56.5333 245.304 57.216C245.698 57.8987 245.896 58.6933 245.896 59.6C245.896 60.5067 245.693 61.3067 245.288 62C244.893 62.6827 244.354 63.2107 243.672 63.584C242.989 63.9573 242.232 64.144 241.4 64.144ZM241.4 62.864C241.922 62.864 242.413 62.7413 242.872 62.496C243.33 62.2507 243.698 61.8827 243.976 61.392C244.264 60.9013 244.408 60.304 244.408 59.6C244.408 58.896 244.269 58.2987 243.992 57.808C243.714 57.3173 243.352 56.9547 242.904 56.72C242.456 56.4747 241.97 56.352 241.448 56.352C240.914 56.352 240.424 56.4747 239.976 56.72C239.538 56.9547 239.186 57.3173 238.92 57.808C238.653 58.2987 238.52 58.896 238.52 59.6C238.52 60.3147 238.648 60.9173 238.904 61.408C239.17 61.8987 239.522 62.2667 239.96 62.512C240.397 62.7467 240.877 62.864 241.4 62.864ZM255.586 55.232V64H254.13V62.704C253.853 63.152 253.463 63.504 252.962 63.76C252.471 64.0053 251.927 64.128 251.33 64.128C250.647 64.128 250.034 63.9893 249.49 63.712C248.946 63.424 248.514 62.9973 248.194 62.432C247.885 61.8667 247.73 61.1787 247.73 60.368V55.232H249.17V60.176C249.17 61.04 249.389 61.7067 249.826 62.176C250.263 62.6347 250.861 62.864 251.618 62.864C252.397 62.864 253.01 62.624 253.458 62.144C253.906 61.664 254.13 60.9653 254.13 60.048V55.232H255.586ZM261.661 55.088C262.418 55.088 263.079 55.2533 263.645 55.584C264.221 55.9147 264.647 56.3307 264.925 56.832V55.232H266.397V64.192C266.397 64.992 266.226 65.7013 265.885 66.32C265.543 66.9493 265.053 67.44 264.413 67.792C263.783 68.144 263.047 68.32 262.205 68.32C261.053 68.32 260.093 68.048 259.325 67.504C258.557 66.96 258.103 66.2187 257.965 65.28H259.405C259.565 65.8133 259.895 66.24 260.397 66.56C260.898 66.8907 261.501 67.056 262.205 67.056C263.005 67.056 263.655 66.8053 264.157 66.304C264.669 65.8027 264.925 65.0987 264.925 64.192V62.352C264.637 62.864 264.21 63.2907 263.645 63.632C263.079 63.9733 262.418 64.144 261.661 64.144C260.882 64.144 260.173 63.952 259.533 63.568C258.903 63.184 258.407 62.6453 258.045 61.952C257.682 61.2587 257.501 60.4693 257.501 59.584C257.501 58.688 257.682 57.904 258.045 57.232C258.407 56.5493 258.903 56.0213 259.533 55.648C260.173 55.2747 260.882 55.088 261.661 55.088ZM264.925 59.6C264.925 58.9387 264.791 58.3627 264.525 57.872C264.258 57.3813 263.895 57.008 263.437 56.752C262.989 56.4853 262.493 56.352 261.949 56.352C261.405 56.352 260.909 56.48 260.461 56.736C260.013 56.992 259.655 57.3653 259.389 57.856C259.122 58.3467 258.989 58.9227 258.989 59.584C258.989 60.256 259.122 60.8427 259.389 61.344C259.655 61.8347 260.013 62.2133 260.461 62.48C260.909 62.736 261.405 62.864 261.949 62.864C262.493 62.864 262.989 62.736 263.437 62.48C263.895 62.2133 264.258 61.8347 264.525 61.344C264.791 60.8427 264.925 60.2613 264.925 59.6ZM273.209 55.072C273.87 55.072 274.468 55.216 275.001 55.504C275.534 55.7813 275.95 56.2027 276.249 56.768C276.558 57.3333 276.713 58.0213 276.713 58.832V64H275.273V59.04C275.273 58.1653 275.054 57.4987 274.617 57.04C274.18 56.5707 273.582 56.336 272.825 56.336C272.057 56.336 271.444 56.576 270.985 57.056C270.537 57.536 270.313 58.2347 270.313 59.152V64H268.857V52.16H270.313V56.48C270.601 56.032 270.996 55.6853 271.497 55.44C272.009 55.1947 272.58 55.072 273.209 55.072ZM289.405 64L284.813 58.912V64H283.357V52.848H284.813V58.016L289.421 52.848H291.261L286.205 58.432L291.309 64H289.405ZM297.207 55.072C298.274 55.072 299.138 55.3973 299.799 56.048C300.46 56.688 300.791 57.616 300.791 58.832V64H299.351V59.04C299.351 58.1653 299.132 57.4987 298.695 57.04C298.258 56.5707 297.66 56.336 296.903 56.336C296.135 56.336 295.522 56.576 295.063 57.056C294.615 57.536 294.391 58.2347 294.391 59.152V64H292.935V55.232H294.391V56.48C294.679 56.032 295.068 55.6853 295.559 55.44C296.06 55.1947 296.61 55.072 297.207 55.072ZM306.994 64.144C306.172 64.144 305.426 63.9573 304.754 63.584C304.092 63.2107 303.57 62.6827 303.186 62C302.812 61.3067 302.626 60.5067 302.626 59.6C302.626 58.704 302.818 57.9147 303.202 57.232C303.596 56.5387 304.13 56.0107 304.802 55.648C305.474 55.2747 306.226 55.088 307.058 55.088C307.89 55.088 308.642 55.2747 309.314 55.648C309.986 56.0107 310.514 56.5333 310.898 57.216C311.292 57.8987 311.49 58.6933 311.49 59.6C311.49 60.5067 311.287 61.3067 310.882 62C310.487 62.6827 309.948 63.2107 309.266 63.584C308.583 63.9573 307.826 64.144 306.994 64.144ZM306.994 62.864C307.516 62.864 308.007 62.7413 308.466 62.496C308.924 62.2507 309.292 61.8827 309.57 61.392C309.858 60.9013 310.002 60.304 310.002 59.6C310.002 58.896 309.863 58.2987 309.586 57.808C309.308 57.3173 308.946 56.9547 308.498 56.72C308.05 56.4747 307.564 56.352 307.042 56.352C306.508 56.352 306.018 56.4747 305.57 56.72C305.132 56.9547 304.78 57.3173 304.514 57.808C304.247 58.2987 304.114 58.896 304.114 59.6C304.114 60.3147 304.242 60.9173 304.498 61.408C304.764 61.8987 305.116 62.2667 305.554 62.512C305.991 62.7467 306.471 62.864 306.994 62.864ZM325.084 55.232L322.348 64H320.844L318.732 57.04L316.62 64H315.116L312.364 55.232H313.852L315.868 62.592L318.044 55.232H319.532L321.66 62.608L323.644 55.232H325.084ZM327.985 52.16V64H326.529V52.16H327.985ZM338.466 59.28C338.466 59.5573 338.45 59.8507 338.418 60.16H331.41C331.464 61.024 331.757 61.7013 332.29 62.192C332.834 62.672 333.49 62.912 334.258 62.912C334.888 62.912 335.41 62.768 335.826 62.48C336.253 62.1813 336.552 61.7867 336.722 61.296H338.29C338.056 62.1387 337.586 62.8267 336.882 63.36C336.178 63.8827 335.304 64.144 334.258 64.144C333.426 64.144 332.68 63.9573 332.018 63.584C331.368 63.2107 330.856 62.6827 330.482 62C330.109 61.3067 329.922 60.5067 329.922 59.6C329.922 58.6933 330.104 57.8987 330.466 57.216C330.829 56.5333 331.336 56.0107 331.986 55.648C332.648 55.2747 333.405 55.088 334.258 55.088C335.09 55.088 335.826 55.2693 336.466 55.632C337.106 55.9947 337.597 56.496 337.938 57.136C338.29 57.7653 338.466 58.48 338.466 59.28ZM336.962 58.976C336.962 58.4213 336.84 57.9467 336.594 57.552C336.349 57.1467 336.013 56.8427 335.586 56.64C335.17 56.4267 334.706 56.32 334.194 56.32C333.458 56.32 332.829 56.5547 332.306 57.024C331.794 57.4933 331.501 58.144 331.426 58.976H336.962ZM339.844 59.584C339.844 58.688 340.026 57.904 340.388 57.232C340.751 56.5493 341.247 56.0213 341.876 55.648C342.516 55.2747 343.231 55.088 344.02 55.088C344.703 55.088 345.338 55.248 345.924 55.568C346.511 55.8773 346.959 56.288 347.268 56.8V52.16H348.74V64H347.268V62.352C346.98 62.8747 346.554 63.3067 345.988 63.648C345.423 63.9787 344.762 64.144 344.004 64.144C343.226 64.144 342.516 63.952 341.876 63.568C341.247 63.184 340.751 62.6453 340.388 61.952C340.026 61.2587 339.844 60.4693 339.844 59.584ZM347.268 59.6C347.268 58.9387 347.135 58.3627 346.868 57.872C346.602 57.3813 346.239 57.008 345.78 56.752C345.332 56.4853 344.836 56.352 344.292 56.352C343.748 56.352 343.252 56.48 342.804 56.736C342.356 56.992 341.999 57.3653 341.732 57.856C341.466 58.3467 341.332 58.9227 341.332 59.584C341.332 60.256 341.466 60.8427 341.732 61.344C341.999 61.8347 342.356 62.2133 342.804 62.48C343.252 62.736 343.748 62.864 344.292 62.864C344.836 62.864 345.332 62.736 345.78 62.48C346.239 62.2133 346.602 61.8347 346.868 61.344C347.135 60.8427 347.268 60.2613 347.268 59.6ZM354.817 55.088C355.574 55.088 356.235 55.2533 356.801 55.584C357.377 55.9147 357.803 56.3307 358.081 56.832V55.232H359.553V64.192C359.553 64.992 359.382 65.7013 359.041 66.32C358.699 66.9493 358.209 67.44 357.569 67.792C356.939 68.144 356.203 68.32 355.361 68.32C354.209 68.32 353.249 68.048 352.481 67.504C351.713 66.96 351.259 66.2187 351.121 65.28H352.561C352.721 65.8133 353.051 66.24 353.553 66.56C354.054 66.8907 354.657 67.056 355.361 67.056C356.161 67.056 356.811 66.8053 357.313 66.304C357.825 65.8027 358.081 65.0987 358.081 64.192V62.352C357.793 62.864 357.366 63.2907 356.801 63.632C356.235 63.9733 355.574 64.144 354.817 64.144C354.038 64.144 353.329 63.952 352.689 63.568C352.059 63.184 351.563 62.6453 351.201 61.952C350.838 61.2587 350.657 60.4693 350.657 59.584C350.657 58.688 350.838 57.904 351.201 57.232C351.563 56.5493 352.059 56.0213 352.689 55.648C353.329 55.2747 354.038 55.088 354.817 55.088ZM358.081 59.6C358.081 58.9387 357.947 58.3627 357.681 57.872C357.414 57.3813 357.051 57.008 356.593 56.752C356.145 56.4853 355.649 56.352 355.105 56.352C354.561 56.352 354.065 56.48 353.617 56.736C353.169 56.992 352.811 57.3653 352.545 57.856C352.278 58.3467 352.145 58.9227 352.145 59.584C352.145 60.256 352.278 60.8427 352.545 61.344C352.811 61.8347 353.169 62.2133 353.617 62.48C354.065 62.736 354.561 62.864 355.105 62.864C355.649 62.864 356.145 62.736 356.593 62.48C357.051 62.2133 357.414 61.8347 357.681 61.344C357.947 60.8427 358.081 60.2613 358.081 59.6ZM370.013 59.28C370.013 59.5573 369.997 59.8507 369.965 60.16H362.957C363.011 61.024 363.304 61.7013 363.837 62.192C364.381 62.672 365.037 62.912 365.805 62.912C366.435 62.912 366.957 62.768 367.373 62.48C367.8 62.1813 368.099 61.7867 368.269 61.296H369.837C369.603 62.1387 369.133 62.8267 368.429 63.36C367.725 63.8827 366.851 64.144 365.805 64.144C364.973 64.144 364.227 63.9573 363.565 63.584C362.915 63.2107 362.403 62.6827 362.029 62C361.656 61.3067 361.469 60.5067 361.469 59.6C361.469 58.6933 361.651 57.8987 362.013 57.216C362.376 56.5333 362.883 56.0107 363.533 55.648C364.195 55.2747 364.952 55.088 365.805 55.088C366.637 55.088 367.373 55.2693 368.013 55.632C368.653 55.9947 369.144 56.496 369.485 57.136C369.837 57.7653 370.013 58.48 370.013 59.28ZM368.509 58.976C368.509 58.4213 368.387 57.9467 368.141 57.552C367.896 57.1467 367.56 56.8427 367.133 56.64C366.717 56.4267 366.253 56.32 365.741 56.32C365.005 56.32 364.376 56.5547 363.853 57.024C363.341 57.4933 363.048 58.144 362.973 58.976H368.509Z" fill="white"/>
<path d="M99.876 22.344V26.18H94.668V42H89.88V26.18H84.672V22.344H99.876ZM111.883 26.208C113.675 26.208 115.112 26.8053 116.195 28C117.278 29.176 117.819 30.8 117.819 32.872V42H113.059V33.516C113.059 32.4707 112.788 31.6587 112.247 31.08C111.706 30.5013 110.978 30.212 110.063 30.212C109.148 30.212 108.42 30.5013 107.879 31.08C107.338 31.6587 107.067 32.4707 107.067 33.516V42H102.279V21.28H107.067V28.476C107.552 27.7853 108.215 27.2347 109.055 26.824C109.895 26.4133 110.838 26.208 111.883 26.208ZM123.554 24.752C122.714 24.752 122.023 24.5093 121.482 24.024C120.959 23.52 120.698 22.904 120.698 22.176C120.698 21.4293 120.959 20.8133 121.482 20.328C122.023 19.824 122.714 19.572 123.554 19.572C124.375 19.572 125.047 19.824 125.57 20.328C126.111 20.8133 126.382 21.4293 126.382 22.176C126.382 22.904 126.111 23.52 125.57 24.024C125.047 24.5093 124.375 24.752 123.554 24.752ZM125.934 26.376V42H121.146V26.376H125.934ZM134.192 28.98C134.752 28.1213 135.452 27.4493 136.292 26.964C137.132 26.46 138.065 26.208 139.092 26.208V31.276H137.776C136.581 31.276 135.685 31.5373 135.088 32.06C134.491 32.564 134.192 33.46 134.192 34.748V42H129.404V26.376H134.192V28.98ZM156.809 26.376V42H152.021V39.872C151.535 40.5627 150.873 41.1227 150.033 41.552C149.211 41.9627 148.297 42.168 147.289 42.168C146.094 42.168 145.039 41.9067 144.125 41.384C143.21 40.8427 142.501 40.068 141.997 39.06C141.493 38.052 141.241 36.8667 141.241 35.504V26.376H146.001V34.86C146.001 35.9053 146.271 36.7173 146.813 37.296C147.354 37.8747 148.082 38.164 148.997 38.164C149.93 38.164 150.667 37.8747 151.209 37.296C151.75 36.7173 152.021 35.9053 152.021 34.86V26.376H156.809ZM161.34 22.344H166.24L163.104 29.848H159.884L161.34 22.344ZM175.408 42.224C174.046 42.224 172.832 41.9907 171.768 41.524C170.704 41.0573 169.864 40.4227 169.248 39.62C168.632 38.7987 168.287 37.884 168.212 36.876H172.944C173 37.4173 173.252 37.856 173.7 38.192C174.148 38.528 174.699 38.696 175.352 38.696C175.95 38.696 176.407 38.584 176.724 38.36C177.06 38.1173 177.228 37.8093 177.228 37.436C177.228 36.988 176.995 36.6613 176.528 36.456C176.062 36.232 175.306 35.9893 174.26 35.728C173.14 35.4667 172.207 35.196 171.46 34.916C170.714 34.6173 170.07 34.16 169.528 33.544C168.987 32.9093 168.716 32.06 168.716 30.996C168.716 30.1 168.959 29.288 169.444 28.56C169.948 27.8133 170.676 27.2253 171.628 26.796C172.599 26.3667 173.747 26.152 175.072 26.152C177.032 26.152 178.572 26.6373 179.692 27.608C180.831 28.5787 181.484 29.8667 181.652 31.472H177.228C177.154 30.9307 176.911 30.5013 176.5 30.184C176.108 29.8667 175.586 29.708 174.932 29.708C174.372 29.708 173.943 29.82 173.644 30.044C173.346 30.2493 173.196 30.5387 173.196 30.912C173.196 31.36 173.43 31.696 173.896 31.92C174.382 32.144 175.128 32.368 176.136 32.592C177.294 32.8907 178.236 33.1893 178.964 33.488C179.692 33.768 180.327 34.2347 180.868 34.888C181.428 35.5227 181.718 36.3813 181.736 37.464C181.736 38.3787 181.475 39.2 180.952 39.928C180.448 40.6373 179.711 41.1973 178.74 41.608C177.788 42.0187 176.678 42.224 175.408 42.224ZM195.387 22.344V42H190.599V22.344H195.387ZM211.093 38.528H203.757L202.581 42H197.569L204.681 22.344H210.225L217.337 42H212.269L211.093 38.528ZM209.861 34.832L207.425 27.636L205.017 34.832H209.861ZM226.614 42.196C225.176 42.196 223.888 41.9627 222.75 41.496C221.611 41.0293 220.696 40.3387 220.006 39.424C219.334 38.5093 218.979 37.408 218.942 36.12H224.038C224.112 36.848 224.364 37.408 224.794 37.8C225.223 38.1733 225.783 38.36 226.474 38.36C227.183 38.36 227.743 38.2013 228.154 37.884C228.564 37.548 228.77 37.0907 228.77 36.512C228.77 36.0267 228.602 35.6253 228.266 35.308C227.948 34.9907 227.547 34.7293 227.062 34.524C226.595 34.3187 225.923 34.0853 225.046 33.824C223.776 33.432 222.74 33.04 221.938 32.648C221.135 32.256 220.444 31.6773 219.866 30.912C219.287 30.1467 218.998 29.148 218.998 27.916C218.998 26.0867 219.66 24.6587 220.986 23.632C222.311 22.5867 224.038 22.064 226.166 22.064C228.331 22.064 230.076 22.5867 231.402 23.632C232.727 24.6587 233.436 26.096 233.53 27.944H228.35C228.312 27.3093 228.079 26.8147 227.65 26.46C227.22 26.0867 226.67 25.9 225.998 25.9C225.419 25.9 224.952 26.0587 224.598 26.376C224.243 26.6747 224.066 27.1133 224.066 27.692C224.066 28.3267 224.364 28.8213 224.962 29.176C225.559 29.5307 226.492 29.9133 227.762 30.324C229.031 30.7533 230.058 31.164 230.842 31.556C231.644 31.948 232.335 32.5173 232.914 33.264C233.492 34.0107 233.782 34.972 233.782 36.148C233.782 37.268 233.492 38.2853 232.914 39.2C232.354 40.1147 231.532 40.8427 230.45 41.384C229.367 41.9253 228.088 42.196 226.614 42.196ZM254.898 38.528H247.562L246.386 42H241.374L248.486 22.344H254.03L261.142 42H256.074L254.898 38.528ZM253.666 34.832L251.23 27.636L248.822 34.832H253.666ZM262.354 34.188C262.354 32.564 262.681 31.1453 263.334 29.932C264.006 28.7187 264.93 27.7853 266.106 27.132C267.301 26.4787 268.664 26.152 270.194 26.152C272.154 26.152 273.788 26.6653 275.094 27.692C276.42 28.7187 277.288 30.1653 277.698 32.032H272.602C272.173 30.8373 271.342 30.24 270.11 30.24C269.233 30.24 268.533 30.5853 268.01 31.276C267.488 31.948 267.226 32.9187 267.226 34.188C267.226 35.4573 267.488 36.4373 268.01 37.128C268.533 37.8 269.233 38.136 270.11 38.136C271.342 38.136 272.173 37.5387 272.602 36.344H277.698C277.288 38.1733 276.42 39.6107 275.094 40.656C273.769 41.7013 272.136 42.224 270.194 42.224C268.664 42.224 267.301 41.8973 266.106 41.244C264.93 40.5907 264.006 39.6573 263.334 38.444C262.681 37.2307 262.354 35.812 262.354 34.188ZM279.307 34.16C279.307 32.5547 279.606 31.1453 280.203 29.932C280.819 28.7187 281.65 27.7853 282.695 27.132C283.741 26.4787 284.907 26.152 286.195 26.152C287.297 26.152 288.258 26.376 289.079 26.824C289.919 27.272 290.563 27.86 291.011 28.588V26.376H295.799V42H291.011V39.788C290.545 40.516 289.891 41.104 289.051 41.552C288.23 42 287.269 42.224 286.167 42.224C284.898 42.224 283.741 41.8973 282.695 41.244C281.65 40.572 280.819 39.6293 280.203 38.416C279.606 37.184 279.307 35.7653 279.307 34.16ZM291.011 34.188C291.011 32.9933 290.675 32.0507 290.003 31.36C289.35 30.6693 288.547 30.324 287.595 30.324C286.643 30.324 285.831 30.6693 285.159 31.36C284.506 32.032 284.179 32.9653 284.179 34.16C284.179 35.3547 284.506 36.3067 285.159 37.016C285.831 37.7067 286.643 38.052 287.595 38.052C288.547 38.052 289.35 37.7067 290.003 37.016C290.675 36.3253 291.011 35.3827 291.011 34.188ZM298.311 34.16C298.311 32.5547 298.61 31.1453 299.207 29.932C299.823 28.7187 300.654 27.7853 301.699 27.132C302.745 26.4787 303.911 26.152 305.199 26.152C306.226 26.152 307.159 26.3667 307.999 26.796C308.858 27.2253 309.53 27.804 310.015 28.532V21.28H314.803V42H310.015V39.76C309.567 40.5067 308.923 41.104 308.083 41.552C307.262 42 306.301 42.224 305.199 42.224C303.911 42.224 302.745 41.8973 301.699 41.244C300.654 40.572 299.823 39.6293 299.207 38.416C298.61 37.184 298.311 35.7653 298.311 34.16ZM310.015 34.188C310.015 32.9933 309.679 32.0507 309.007 31.36C308.354 30.6693 307.551 30.324 306.599 30.324C305.647 30.324 304.835 30.6693 304.163 31.36C303.51 32.032 303.183 32.9653 303.183 34.16C303.183 35.3547 303.51 36.3067 304.163 37.016C304.835 37.7067 305.647 38.052 306.599 38.052C307.551 38.052 308.354 37.7067 309.007 37.016C309.679 36.3253 310.015 35.3827 310.015 34.188ZM332.995 33.936C332.995 34.384 332.967 34.8507 332.911 35.336H322.075C322.15 36.3067 322.458 37.0533 322.999 37.576C323.559 38.08 324.241 38.332 325.043 38.332C326.238 38.332 327.069 37.828 327.535 36.82H332.631C332.37 37.8467 331.894 38.7707 331.203 39.592C330.531 40.4133 329.682 41.0573 328.655 41.524C327.629 41.9907 326.481 42.224 325.211 42.224C323.681 42.224 322.318 41.8973 321.123 41.244C319.929 40.5907 318.995 39.6573 318.323 38.444C317.651 37.2307 317.315 35.812 317.315 34.188C317.315 32.564 317.642 31.1453 318.295 29.932C318.967 28.7187 319.901 27.7853 321.095 27.132C322.29 26.4787 323.662 26.152 325.211 26.152C326.723 26.152 328.067 26.4693 329.243 27.104C330.419 27.7387 331.334 28.644 331.987 29.82C332.659 30.996 332.995 32.368 332.995 33.936ZM328.095 32.676C328.095 31.8547 327.815 31.2013 327.255 30.716C326.695 30.2307 325.995 29.988 325.155 29.988C324.353 29.988 323.671 30.2213 323.111 30.688C322.57 31.1547 322.234 31.8173 322.103 32.676H328.095ZM355.457 26.208C357.398 26.208 358.938 26.796 360.077 27.972C361.234 29.148 361.813 30.7813 361.813 32.872V42H357.053V33.516C357.053 32.508 356.782 31.7333 356.241 31.192C355.718 30.632 354.99 30.352 354.057 30.352C353.124 30.352 352.386 30.632 351.845 31.192C351.322 31.7333 351.061 32.508 351.061 33.516V42H346.301V33.516C346.301 32.508 346.03 31.7333 345.489 31.192C344.966 30.632 344.238 30.352 343.305 30.352C342.372 30.352 341.634 30.632 341.093 31.192C340.57 31.7333 340.309 32.508 340.309 33.516V42H335.521V26.376H340.309V28.336C340.794 27.6827 341.429 27.1693 342.213 26.796C342.997 26.404 343.884 26.208 344.873 26.208C346.049 26.208 347.094 26.46 348.009 26.964C348.942 27.468 349.67 28.1867 350.193 29.12C350.734 28.2613 351.472 27.5613 352.405 27.02C353.338 26.4787 354.356 26.208 355.457 26.208ZM381.122 26.376L371.322 49.42H366.17L369.754 41.468L363.398 26.376H368.746L372.358 36.148L375.942 26.376H381.122Z" fill="white"/>
</svg>
