<svg width="382" height="69" viewBox="0 0 382 69" fill="none" xmlns="http://www.w3.org/2000/svg">
<path d="M38.7651 11.1667C39.3222 9.9158 38.7624 8.43888 37.4675 7.99346C32.1028 6.14813 26.2861 5.95356 20.7789 7.46726C14.472 9.20079 8.96126 13.0675 5.18567 18.4087C1.41008 23.7498 -0.396748 30.2348 0.0730518 36.7587C0.542851 43.2827 3.26021 49.4419 7.76212 54.187C12.264 58.932 18.2719 61.9693 24.7622 62.7813C31.2524 63.5932 37.8234 62.1297 43.3556 58.64C48.8877 55.1503 53.0387 49.8504 55.1013 43.6433C56.9023 38.2233 57.0137 32.4044 55.4528 26.9501C55.0761 25.6336 53.6306 24.9969 52.3521 25.4875C51.0736 25.9781 50.4488 27.4103 50.8009 28.7337C51.9652 33.1092 51.8344 37.7488 50.3953 42.0795C48.6945 47.1979 45.2716 51.5682 40.7098 54.4458C36.148 57.3233 30.7296 58.5302 25.3778 57.8606C20.026 57.191 15.0719 54.6865 11.3596 50.7738C7.64736 46.861 5.40664 41.7822 5.01925 36.4026C4.63185 31.0229 6.12175 25.6754 9.23509 21.2712C12.3484 16.8669 16.8926 13.6784 22.0932 12.2489C26.4936 11.0394 31.1336 11.1526 35.4419 12.5452C36.745 12.9664 38.208 12.4177 38.7651 11.1667Z" fill="#FDFDFD"/>
<path d="M31.6428 22.5976C32.639 21.2716 31.9362 19.3998 30.2823 19.2756C27.3286 19.0539 23.9889 19.2865 21.7848 20.2563C18.6347 21.6423 16.0245 24.0209 14.3527 27.0292C12.681 30.0374 12.0394 33.5101 12.5259 36.9171C13.0124 40.3241 14.6004 43.4784 17.0473 45.8985C19.4943 48.3186 22.6659 49.8716 26.0781 50.3204C29.4903 50.7693 32.9556 50.0894 35.9452 48.3845C38.9348 46.6796 41.2845 44.0434 42.6357 40.8781C43.5733 38.6816 43.9616 35.4182 43.8318 32.5109C43.7549 30.787 41.848 30.0223 40.4211 30.9926C39.56 31.5781 39.1832 32.6378 39.2775 33.6748C39.4444 35.5107 39.1559 37.3689 38.4251 39.0808C37.4663 41.327 35.7989 43.1978 33.6773 44.4076C31.5558 45.6175 29.0966 46.1 26.6752 45.7814C24.2538 45.4629 22.0031 44.3608 20.2666 42.6434C18.5301 40.926 17.4033 38.6877 17.058 36.2699C16.7128 33.8521 17.1681 31.3878 18.3544 29.253C19.5408 27.1182 21.393 25.4303 23.6285 24.4467C25.4008 23.6669 27.3367 23.3639 29.2464 23.5546C30.1593 23.6458 31.0918 23.3311 31.6428 22.5976Z" fill="white"/>
<path d="M23.1151 32.4923C24.8721 28.1497 29.2926 28.5296 31.2832 29.2624L44.9292 15.7239L45.4965 9.74548L55.8653 0L55.8266 9.78633L64.5255 9.82074L54.7005 19.5684L48.7199 19.5447L47.0824 21.1693L34.5304 33.0809C34.5269 33.9508 34.1579 35.6167 33.9738 36.3409C32.65 41.1202 27.9767 40.4855 25.8055 39.5707C22.3328 37.8172 22.5649 34.1211 23.1151 32.4923Z" fill="white"/>
<path d="M92.352 54.278V57.54H95.908V58.59H92.352V61.95H96.328V63H91.078V53.228H96.328V54.278H92.352ZM107.482 55.188C108.079 55.188 108.611 55.314 109.078 55.566C109.544 55.8087 109.913 56.1773 110.184 56.672C110.454 57.1667 110.59 57.7687 110.59 58.478V63H109.33V58.66C109.33 57.8947 109.138 57.3113 108.756 56.91C108.382 56.4993 107.874 56.294 107.23 56.294C106.567 56.294 106.04 56.5087 105.648 56.938C105.256 57.358 105.06 57.9693 105.06 58.772V63H103.8V58.66C103.8 57.8947 103.608 57.3113 103.226 56.91C102.852 56.4993 102.344 56.294 101.7 56.294C101.037 56.294 100.51 56.5087 100.118 56.938C99.7257 57.358 99.5297 57.9693 99.5297 58.772V63H98.2557V55.328H99.5297V56.434C99.7817 56.0327 100.118 55.7247 100.538 55.51C100.967 55.2953 101.438 55.188 101.952 55.188C102.596 55.188 103.165 55.3327 103.66 55.622C104.154 55.9113 104.523 56.336 104.766 56.896C104.98 56.3547 105.335 55.9347 105.83 55.636C106.324 55.3373 106.875 55.188 107.482 55.188ZM113.954 56.742C114.206 56.3033 114.579 55.9393 115.074 55.65C115.578 55.3513 116.161 55.202 116.824 55.202C117.505 55.202 118.121 55.3653 118.672 55.692C119.232 56.0187 119.67 56.4807 119.988 57.078C120.305 57.666 120.464 58.352 120.464 59.136C120.464 59.9107 120.305 60.6013 119.988 61.208C119.67 61.8147 119.232 62.286 118.672 62.622C118.121 62.958 117.505 63.126 116.824 63.126C116.17 63.126 115.592 62.9813 115.088 62.692C114.593 62.3933 114.215 62.0247 113.954 61.586V66.64H112.68V55.328H113.954V56.742ZM119.162 59.136C119.162 58.5573 119.045 58.0533 118.812 57.624C118.578 57.1947 118.261 56.868 117.86 56.644C117.468 56.42 117.034 56.308 116.558 56.308C116.091 56.308 115.657 56.4247 115.256 56.658C114.864 56.882 114.546 57.2133 114.304 57.652C114.07 58.0813 113.954 58.5807 113.954 59.15C113.954 59.7287 114.07 60.2373 114.304 60.676C114.546 61.1053 114.864 61.4367 115.256 61.67C115.657 61.894 116.091 62.006 116.558 62.006C117.034 62.006 117.468 61.894 117.86 61.67C118.261 61.4367 118.578 61.1053 118.812 60.676C119.045 60.2373 119.162 59.724 119.162 59.136ZM125.487 63.126C124.768 63.126 124.115 62.9627 123.527 62.636C122.948 62.3093 122.491 61.8473 122.155 61.25C121.828 60.6433 121.665 59.9433 121.665 59.15C121.665 58.366 121.833 57.6753 122.169 57.078C122.514 56.4713 122.981 56.0093 123.569 55.692C124.157 55.3653 124.815 55.202 125.543 55.202C126.271 55.202 126.929 55.3653 127.517 55.692C128.105 56.0093 128.567 56.4667 128.903 57.064C129.248 57.6613 129.421 58.3567 129.421 59.15C129.421 59.9433 129.243 60.6433 128.889 61.25C128.543 61.8473 128.072 62.3093 127.475 62.636C126.877 62.9627 126.215 63.126 125.487 63.126ZM125.487 62.006C125.944 62.006 126.373 61.8987 126.775 61.684C127.176 61.4693 127.498 61.1473 127.741 60.718C127.993 60.2887 128.119 59.766 128.119 59.15C128.119 58.534 127.997 58.0113 127.755 57.582C127.512 57.1527 127.195 56.8353 126.803 56.63C126.411 56.4153 125.986 56.308 125.529 56.308C125.062 56.308 124.633 56.4153 124.241 56.63C123.858 56.8353 123.55 57.1527 123.317 57.582C123.083 58.0113 122.967 58.534 122.967 59.15C122.967 59.7753 123.079 60.3027 123.303 60.732C123.536 61.1613 123.844 61.4833 124.227 61.698C124.609 61.9033 125.029 62.006 125.487 62.006ZM141.316 55.328L138.922 63H137.606L135.758 56.91L133.91 63H132.594L130.186 55.328H131.488L133.252 61.768L135.156 55.328H136.458L138.32 61.782L140.056 55.328H141.316ZM149.58 58.87C149.58 59.1127 149.566 59.3693 149.538 59.64H143.406C143.453 60.396 143.709 60.9887 144.176 61.418C144.652 61.838 145.226 62.048 145.898 62.048C146.449 62.048 146.906 61.922 147.27 61.67C147.643 61.4087 147.905 61.0633 148.054 60.634H149.426C149.221 61.3713 148.81 61.9733 148.194 62.44C147.578 62.8973 146.813 63.126 145.898 63.126C145.17 63.126 144.517 62.9627 143.938 62.636C143.369 62.3093 142.921 61.8473 142.594 61.25C142.267 60.6433 142.104 59.9433 142.104 59.15C142.104 58.3567 142.263 57.6613 142.58 57.064C142.897 56.4667 143.341 56.0093 143.91 55.692C144.489 55.3653 145.151 55.202 145.898 55.202C146.626 55.202 147.27 55.3607 147.83 55.678C148.39 55.9953 148.819 56.434 149.118 56.994C149.426 57.5447 149.58 58.17 149.58 58.87ZM148.264 58.604C148.264 58.1187 148.157 57.7033 147.942 57.358C147.727 57.0033 147.433 56.7373 147.06 56.56C146.696 56.3733 146.29 56.28 145.842 56.28C145.198 56.28 144.647 56.4853 144.19 56.896C143.742 57.3067 143.485 57.876 143.42 58.604H148.264ZM152.536 56.574C152.76 56.1353 153.077 55.7947 153.488 55.552C153.908 55.3093 154.416 55.188 155.014 55.188V56.504H154.678C153.25 56.504 152.536 57.2787 152.536 58.828V63H151.262V55.328H152.536V56.574ZM165.71 55.188C166.308 55.188 166.84 55.314 167.306 55.566C167.773 55.8087 168.142 56.1773 168.412 56.672C168.683 57.1667 168.818 57.7687 168.818 58.478V63H167.558V58.66C167.558 57.8947 167.367 57.3113 166.984 56.91C166.611 56.4993 166.102 56.294 165.458 56.294C164.796 56.294 164.268 56.5087 163.876 56.938C163.484 57.358 163.288 57.9693 163.288 58.772V63H162.028V58.66C162.028 57.8947 161.837 57.3113 161.454 56.91C161.081 56.4993 160.572 56.294 159.928 56.294C159.266 56.294 158.738 56.5087 158.346 56.938C157.954 57.358 157.758 57.9693 157.758 58.772V63H156.484V55.328H157.758V56.434C158.01 56.0327 158.346 55.7247 158.766 55.51C159.196 55.2953 159.667 55.188 160.18 55.188C160.824 55.188 161.394 55.3327 161.888 55.622C162.383 55.9113 162.752 56.336 162.994 56.896C163.209 56.3547 163.564 55.9347 164.058 55.636C164.553 55.3373 165.104 55.188 165.71 55.188ZM177.908 58.87C177.908 59.1127 177.894 59.3693 177.866 59.64H171.734C171.781 60.396 172.037 60.9887 172.504 61.418C172.98 61.838 173.554 62.048 174.226 62.048C174.777 62.048 175.234 61.922 175.598 61.67C175.971 61.4087 176.233 61.0633 176.382 60.634H177.754C177.549 61.3713 177.138 61.9733 176.522 62.44C175.906 62.8973 175.141 63.126 174.226 63.126C173.498 63.126 172.845 62.9627 172.266 62.636C171.697 62.3093 171.249 61.8473 170.922 61.25C170.595 60.6433 170.432 59.9433 170.432 59.15C170.432 58.3567 170.591 57.6613 170.908 57.064C171.225 56.4667 171.669 56.0093 172.238 55.692C172.817 55.3653 173.479 55.202 174.226 55.202C174.954 55.202 175.598 55.3607 176.158 55.678C176.718 55.9953 177.147 56.434 177.446 56.994C177.754 57.5447 177.908 58.17 177.908 58.87ZM176.592 58.604C176.592 58.1187 176.485 57.7033 176.27 57.358C176.055 57.0033 175.761 56.7373 175.388 56.56C175.024 56.3733 174.618 56.28 174.17 56.28C173.526 56.28 172.975 56.4853 172.518 56.896C172.07 57.3067 171.813 57.876 171.748 58.604H176.592ZM183.328 55.188C184.261 55.188 185.017 55.4727 185.596 56.042C186.174 56.602 186.464 57.414 186.464 58.478V63H185.204V58.66C185.204 57.8947 185.012 57.3113 184.63 56.91C184.247 56.4993 183.724 56.294 183.062 56.294C182.39 56.294 181.853 56.504 181.452 56.924C181.06 57.344 180.864 57.9553 180.864 58.758V63H179.59V55.328H180.864V56.42C181.116 56.028 181.456 55.7247 181.886 55.51C182.324 55.2953 182.805 55.188 183.328 55.188ZM190.099 56.378V60.9C190.099 61.2733 190.178 61.5393 190.337 61.698C190.495 61.8473 190.771 61.922 191.163 61.922H192.101V63H190.953C190.243 63 189.711 62.8367 189.357 62.51C189.002 62.1833 188.825 61.6467 188.825 60.9V56.378H187.831V55.328H188.825V53.396H190.099V55.328H192.101V56.378H190.099ZM203.383 53.242V54.278H200.723V63H199.449V54.278H196.775V53.242H203.383ZM208.759 55.188C209.338 55.188 209.86 55.314 210.327 55.566C210.794 55.8087 211.158 56.1773 211.419 56.672C211.69 57.1667 211.825 57.7687 211.825 58.478V63H210.565V58.66C210.565 57.8947 210.374 57.3113 209.991 56.91C209.608 56.4993 209.086 56.294 208.423 56.294C207.751 56.294 207.214 56.504 206.813 56.924C206.421 57.344 206.225 57.9553 206.225 58.758V63H204.951V52.64H206.225V56.42C206.477 56.028 206.822 55.7247 207.261 55.51C207.709 55.2953 208.208 55.188 208.759 55.188ZM215.18 56.574C215.404 56.1353 215.721 55.7947 216.132 55.552C216.552 55.3093 217.061 55.188 217.658 55.188V56.504H217.322C215.894 56.504 215.18 57.2787 215.18 58.828V63H213.906V55.328H215.18V56.574ZM222.475 63.126C221.756 63.126 221.103 62.9627 220.515 62.636C219.936 62.3093 219.479 61.8473 219.143 61.25C218.816 60.6433 218.653 59.9433 218.653 59.15C218.653 58.366 218.821 57.6753 219.157 57.078C219.502 56.4713 219.969 56.0093 220.557 55.692C221.145 55.3653 221.803 55.202 222.531 55.202C223.259 55.202 223.917 55.3653 224.505 55.692C225.093 56.0093 225.555 56.4667 225.891 57.064C226.236 57.6613 226.409 58.3567 226.409 59.15C226.409 59.9433 226.231 60.6433 225.877 61.25C225.531 61.8473 225.06 62.3093 224.463 62.636C223.865 62.9627 223.203 63.126 222.475 63.126ZM222.475 62.006C222.932 62.006 223.361 61.8987 223.763 61.684C224.164 61.4693 224.486 61.1473 224.729 60.718C224.981 60.2887 225.107 59.766 225.107 59.15C225.107 58.534 224.985 58.0113 224.743 57.582C224.5 57.1527 224.183 56.8353 223.791 56.63C223.399 56.4153 222.974 56.308 222.517 56.308C222.05 56.308 221.621 56.4153 221.229 56.63C220.846 56.8353 220.538 57.1527 220.305 57.582C220.071 58.0113 219.955 58.534 219.955 59.15C219.955 59.7753 220.067 60.3027 220.291 60.732C220.524 61.1613 220.832 61.4833 221.215 61.698C221.597 61.9033 222.017 62.006 222.475 62.006ZM234.888 55.328V63H233.614V61.866C233.371 62.258 233.031 62.566 232.592 62.79C232.163 63.0047 231.687 63.112 231.164 63.112C230.567 63.112 230.03 62.9907 229.554 62.748C229.078 62.496 228.7 62.1227 228.42 61.628C228.149 61.1333 228.014 60.5313 228.014 59.822V55.328H229.274V59.654C229.274 60.41 229.465 60.9933 229.848 61.404C230.231 61.8053 230.753 62.006 231.416 62.006C232.097 62.006 232.634 61.796 233.026 61.376C233.418 60.956 233.614 60.3447 233.614 59.542V55.328H234.888ZM240.203 55.202C240.866 55.202 241.444 55.3467 241.939 55.636C242.443 55.9253 242.816 56.2893 243.059 56.728V55.328H244.347V63.168C244.347 63.868 244.198 64.4887 243.899 65.03C243.6 65.5807 243.171 66.01 242.611 66.318C242.06 66.626 241.416 66.78 240.679 66.78C239.671 66.78 238.831 66.542 238.159 66.066C237.487 65.59 237.09 64.9413 236.969 64.12H238.229C238.369 64.5867 238.658 64.96 239.097 65.24C239.536 65.5293 240.063 65.674 240.679 65.674C241.379 65.674 241.948 65.4547 242.387 65.016C242.835 64.5773 243.059 63.9613 243.059 63.168V61.558C242.807 62.006 242.434 62.3793 241.939 62.678C241.444 62.9767 240.866 63.126 240.203 63.126C239.522 63.126 238.901 62.958 238.341 62.622C237.79 62.286 237.356 61.8147 237.039 61.208C236.722 60.6013 236.563 59.9107 236.563 59.136C236.563 58.352 236.722 57.666 237.039 57.078C237.356 56.4807 237.79 56.0187 238.341 55.692C238.901 55.3653 239.522 55.202 240.203 55.202ZM243.059 59.15C243.059 58.5713 242.942 58.0673 242.709 57.638C242.476 57.2087 242.158 56.882 241.757 56.658C241.365 56.4247 240.931 56.308 240.455 56.308C239.979 56.308 239.545 56.42 239.153 56.644C238.761 56.868 238.448 57.1947 238.215 57.624C237.982 58.0533 237.865 58.5573 237.865 59.136C237.865 59.724 237.982 60.2373 238.215 60.676C238.448 61.1053 238.761 61.4367 239.153 61.67C239.545 61.894 239.979 62.006 240.455 62.006C240.931 62.006 241.365 61.894 241.757 61.67C242.158 61.4367 242.476 61.1053 242.709 60.676C242.942 60.2373 243.059 59.7287 243.059 59.15ZM250.308 55.188C250.887 55.188 251.409 55.314 251.876 55.566C252.343 55.8087 252.707 56.1773 252.968 56.672C253.239 57.1667 253.374 57.7687 253.374 58.478V63H252.114V58.66C252.114 57.8947 251.923 57.3113 251.54 56.91C251.157 56.4993 250.635 56.294 249.972 56.294C249.3 56.294 248.763 56.504 248.362 56.924C247.97 57.344 247.774 57.9553 247.774 58.758V63H246.5V52.64H247.774V56.42C248.026 56.028 248.371 55.7247 248.81 55.51C249.258 55.2953 249.757 55.188 250.308 55.188ZM264.479 63L260.461 58.548V63H259.187V53.242H260.461V57.764L264.493 53.242H266.103L261.679 58.128L266.145 63H264.479ZM271.306 55.188C272.24 55.188 272.996 55.4727 273.574 56.042C274.153 56.602 274.442 57.414 274.442 58.478V63H273.182V58.66C273.182 57.8947 272.991 57.3113 272.608 56.91C272.226 56.4993 271.703 56.294 271.04 56.294C270.368 56.294 269.832 56.504 269.43 56.924C269.038 57.344 268.842 57.9553 268.842 58.758V63H267.568V55.328H268.842V56.42C269.094 56.028 269.435 55.7247 269.864 55.51C270.303 55.2953 270.784 55.188 271.306 55.188ZM279.869 63.126C279.151 63.126 278.497 62.9627 277.909 62.636C277.331 62.3093 276.873 61.8473 276.537 61.25C276.211 60.6433 276.047 59.9433 276.047 59.15C276.047 58.366 276.215 57.6753 276.551 57.078C276.897 56.4713 277.363 56.0093 277.951 55.692C278.539 55.3653 279.197 55.202 279.925 55.202C280.653 55.202 281.311 55.3653 281.899 55.692C282.487 56.0093 282.949 56.4667 283.285 57.064C283.631 57.6613 283.803 58.3567 283.803 59.15C283.803 59.9433 283.626 60.6433 283.271 61.25C282.926 61.8473 282.455 62.3093 281.857 62.636C281.26 62.9627 280.597 63.126 279.869 63.126ZM279.869 62.006C280.327 62.006 280.756 61.8987 281.157 61.684C281.559 61.4693 281.881 61.1473 282.123 60.718C282.375 60.2887 282.501 59.766 282.501 59.15C282.501 58.534 282.38 58.0113 282.137 57.582C281.895 57.1527 281.577 56.8353 281.185 56.63C280.793 56.4153 280.369 56.308 279.911 56.308C279.445 56.308 279.015 56.4153 278.623 56.63C278.241 56.8353 277.933 57.1527 277.699 57.582C277.466 58.0113 277.349 58.534 277.349 59.15C277.349 59.7753 277.461 60.3027 277.685 60.732C277.919 61.1613 278.227 61.4833 278.609 61.698C278.992 61.9033 279.412 62.006 279.869 62.006ZM295.698 55.328L293.304 63H291.988L290.14 56.91L288.292 63H286.976L284.568 55.328H285.87L287.634 61.768L289.538 55.328H290.84L292.702 61.782L294.438 55.328H295.698ZM298.237 52.64V63H296.963V52.64H298.237ZM299.932 59.136C299.932 58.352 300.091 57.666 300.408 57.078C300.725 56.4807 301.159 56.0187 301.71 55.692C302.27 55.3653 302.895 55.202 303.586 55.202C304.183 55.202 304.739 55.342 305.252 55.622C305.765 55.8927 306.157 56.252 306.428 56.7V52.64H307.716V63H306.428V61.558C306.176 62.0153 305.803 62.3933 305.308 62.692C304.813 62.9813 304.235 63.126 303.572 63.126C302.891 63.126 302.27 62.958 301.71 62.622C301.159 62.286 300.725 61.8147 300.408 61.208C300.091 60.6013 299.932 59.9107 299.932 59.136ZM306.428 59.15C306.428 58.5713 306.311 58.0673 306.078 57.638C305.845 57.2087 305.527 56.882 305.126 56.658C304.734 56.4247 304.3 56.308 303.824 56.308C303.348 56.308 302.914 56.42 302.522 56.644C302.13 56.868 301.817 57.1947 301.584 57.624C301.351 58.0533 301.234 58.5573 301.234 59.136C301.234 59.724 301.351 60.2373 301.584 60.676C301.817 61.1053 302.13 61.4367 302.522 61.67C302.914 61.894 303.348 62.006 303.824 62.006C304.3 62.006 304.734 61.894 305.126 61.67C305.527 61.4367 305.845 61.1053 306.078 60.676C306.311 60.2373 306.428 59.7287 306.428 59.15ZM313.033 55.202C313.696 55.202 314.274 55.3467 314.769 55.636C315.273 55.9253 315.646 56.2893 315.889 56.728V55.328H317.177V63.168C317.177 63.868 317.028 64.4887 316.729 65.03C316.43 65.5807 316.001 66.01 315.441 66.318C314.89 66.626 314.246 66.78 313.509 66.78C312.501 66.78 311.661 66.542 310.989 66.066C310.317 65.59 309.92 64.9413 309.799 64.12H311.059C311.199 64.5867 311.488 64.96 311.927 65.24C312.366 65.5293 312.893 65.674 313.509 65.674C314.209 65.674 314.778 65.4547 315.217 65.016C315.665 64.5773 315.889 63.9613 315.889 63.168V61.558C315.637 62.006 315.264 62.3793 314.769 62.678C314.274 62.9767 313.696 63.126 313.033 63.126C312.352 63.126 311.731 62.958 311.171 62.622C310.62 62.286 310.186 61.8147 309.869 61.208C309.552 60.6013 309.393 59.9107 309.393 59.136C309.393 58.352 309.552 57.666 309.869 57.078C310.186 56.4807 310.62 56.0187 311.171 55.692C311.731 55.3653 312.352 55.202 313.033 55.202ZM315.889 59.15C315.889 58.5713 315.772 58.0673 315.539 57.638C315.306 57.2087 314.988 56.882 314.587 56.658C314.195 56.4247 313.761 56.308 313.285 56.308C312.809 56.308 312.375 56.42 311.983 56.644C311.591 56.868 311.278 57.1947 311.045 57.624C310.812 58.0533 310.695 58.5573 310.695 59.136C310.695 59.724 310.812 60.2373 311.045 60.676C311.278 61.1053 311.591 61.4367 311.983 61.67C312.375 61.894 312.809 62.006 313.285 62.006C313.761 62.006 314.195 61.894 314.587 61.67C314.988 61.4367 315.306 61.1053 315.539 60.676C315.772 60.2373 315.889 59.7287 315.889 59.15ZM326.33 58.87C326.33 59.1127 326.316 59.3693 326.288 59.64H320.156C320.203 60.396 320.459 60.9887 320.926 61.418C321.402 61.838 321.976 62.048 322.648 62.048C323.199 62.048 323.656 61.922 324.02 61.67C324.393 61.4087 324.655 61.0633 324.804 60.634H326.176C325.971 61.3713 325.56 61.9733 324.944 62.44C324.328 62.8973 323.563 63.126 322.648 63.126C321.92 63.126 321.267 62.9627 320.688 62.636C320.119 62.3093 319.671 61.8473 319.344 61.25C319.017 60.6433 318.854 59.9433 318.854 59.15C318.854 58.3567 319.013 57.6613 319.33 57.064C319.647 56.4667 320.091 56.0093 320.66 55.692C321.239 55.3653 321.901 55.202 322.648 55.202C323.376 55.202 324.02 55.3607 324.58 55.678C325.14 55.9953 325.569 56.434 325.868 56.994C326.176 57.5447 326.33 58.17 326.33 58.87ZM325.014 58.604C325.014 58.1187 324.907 57.7033 324.692 57.358C324.477 57.0033 324.183 56.7373 323.81 56.56C323.446 56.3733 323.04 56.28 322.592 56.28C321.948 56.28 321.397 56.4853 320.94 56.896C320.492 57.3067 320.235 57.876 320.17 58.604H325.014Z" fill="white"/>
<path d="M99.876 22.344V26.18H94.668V42H89.88V26.18H84.672V22.344H99.876ZM111.883 26.208C113.675 26.208 115.112 26.8053 116.195 28C117.278 29.176 117.819 30.8 117.819 32.872V42H113.059V33.516C113.059 32.4707 112.788 31.6587 112.247 31.08C111.706 30.5013 110.978 30.212 110.063 30.212C109.148 30.212 108.42 30.5013 107.879 31.08C107.338 31.6587 107.067 32.4707 107.067 33.516V42H102.279V21.28H107.067V28.476C107.552 27.7853 108.215 27.2347 109.055 26.824C109.895 26.4133 110.838 26.208 111.883 26.208ZM123.554 24.752C122.714 24.752 122.023 24.5093 121.482 24.024C120.959 23.52 120.698 22.904 120.698 22.176C120.698 21.4293 120.959 20.8133 121.482 20.328C122.023 19.824 122.714 19.572 123.554 19.572C124.375 19.572 125.047 19.824 125.57 20.328C126.111 20.8133 126.382 21.4293 126.382 22.176C126.382 22.904 126.111 23.52 125.57 24.024C125.047 24.5093 124.375 24.752 123.554 24.752ZM125.934 26.376V42H121.146V26.376H125.934ZM134.192 28.98C134.752 28.1213 135.452 27.4493 136.292 26.964C137.132 26.46 138.065 26.208 139.092 26.208V31.276H137.776C136.581 31.276 135.685 31.5373 135.088 32.06C134.491 32.564 134.192 33.46 134.192 34.748V42H129.404V26.376H134.192V28.98ZM156.809 26.376V42H152.021V39.872C151.535 40.5627 150.873 41.1227 150.033 41.552C149.211 41.9627 148.297 42.168 147.289 42.168C146.094 42.168 145.039 41.9067 144.125 41.384C143.21 40.8427 142.501 40.068 141.997 39.06C141.493 38.052 141.241 36.8667 141.241 35.504V26.376H146.001V34.86C146.001 35.9053 146.271 36.7173 146.813 37.296C147.354 37.8747 148.082 38.164 148.997 38.164C149.93 38.164 150.667 37.8747 151.209 37.296C151.75 36.7173 152.021 35.9053 152.021 34.86V26.376H156.809ZM161.34 22.344H166.24L163.104 29.848H159.884L161.34 22.344ZM175.408 42.224C174.046 42.224 172.832 41.9907 171.768 41.524C170.704 41.0573 169.864 40.4227 169.248 39.62C168.632 38.7987 168.287 37.884 168.212 36.876H172.944C173 37.4173 173.252 37.856 173.7 38.192C174.148 38.528 174.699 38.696 175.352 38.696C175.95 38.696 176.407 38.584 176.724 38.36C177.06 38.1173 177.228 37.8093 177.228 37.436C177.228 36.988 176.995 36.6613 176.528 36.456C176.062 36.232 175.306 35.9893 174.26 35.728C173.14 35.4667 172.207 35.196 171.46 34.916C170.714 34.6173 170.07 34.16 169.528 33.544C168.987 32.9093 168.716 32.06 168.716 30.996C168.716 30.1 168.959 29.288 169.444 28.56C169.948 27.8133 170.676 27.2253 171.628 26.796C172.599 26.3667 173.747 26.152 175.072 26.152C177.032 26.152 178.572 26.6373 179.692 27.608C180.831 28.5787 181.484 29.8667 181.652 31.472H177.228C177.154 30.9307 176.911 30.5013 176.5 30.184C176.108 29.8667 175.586 29.708 174.932 29.708C174.372 29.708 173.943 29.82 173.644 30.044C173.346 30.2493 173.196 30.5387 173.196 30.912C173.196 31.36 173.43 31.696 173.896 31.92C174.382 32.144 175.128 32.368 176.136 32.592C177.294 32.8907 178.236 33.1893 178.964 33.488C179.692 33.768 180.327 34.2347 180.868 34.888C181.428 35.5227 181.718 36.3813 181.736 37.464C181.736 38.3787 181.475 39.2 180.952 39.928C180.448 40.6373 179.711 41.1973 178.74 41.608C177.788 42.0187 176.678 42.224 175.408 42.224ZM195.387 22.344V42H190.599V22.344H195.387ZM211.093 38.528H203.757L202.581 42H197.569L204.681 22.344H210.225L217.337 42H212.269L211.093 38.528ZM209.861 34.832L207.425 27.636L205.017 34.832H209.861ZM226.614 42.196C225.176 42.196 223.888 41.9627 222.75 41.496C221.611 41.0293 220.696 40.3387 220.006 39.424C219.334 38.5093 218.979 37.408 218.942 36.12H224.038C224.112 36.848 224.364 37.408 224.794 37.8C225.223 38.1733 225.783 38.36 226.474 38.36C227.183 38.36 227.743 38.2013 228.154 37.884C228.564 37.548 228.77 37.0907 228.77 36.512C228.77 36.0267 228.602 35.6253 228.266 35.308C227.948 34.9907 227.547 34.7293 227.062 34.524C226.595 34.3187 225.923 34.0853 225.046 33.824C223.776 33.432 222.74 33.04 221.938 32.648C221.135 32.256 220.444 31.6773 219.866 30.912C219.287 30.1467 218.998 29.148 218.998 27.916C218.998 26.0867 219.66 24.6587 220.986 23.632C222.311 22.5867 224.038 22.064 226.166 22.064C228.331 22.064 230.076 22.5867 231.402 23.632C232.727 24.6587 233.436 26.096 233.53 27.944H228.35C228.312 27.3093 228.079 26.8147 227.65 26.46C227.22 26.0867 226.67 25.9 225.998 25.9C225.419 25.9 224.952 26.0587 224.598 26.376C224.243 26.6747 224.066 27.1133 224.066 27.692C224.066 28.3267 224.364 28.8213 224.962 29.176C225.559 29.5307 226.492 29.9133 227.762 30.324C229.031 30.7533 230.058 31.164 230.842 31.556C231.644 31.948 232.335 32.5173 232.914 33.264C233.492 34.0107 233.782 34.972 233.782 36.148C233.782 37.268 233.492 38.2853 232.914 39.2C232.354 40.1147 231.532 40.8427 230.45 41.384C229.367 41.9253 228.088 42.196 226.614 42.196ZM254.898 38.528H247.562L246.386 42H241.374L248.486 22.344H254.03L261.142 42H256.074L254.898 38.528ZM253.666 34.832L251.23 27.636L248.822 34.832H253.666ZM262.354 34.188C262.354 32.564 262.681 31.1453 263.334 29.932C264.006 28.7187 264.93 27.7853 266.106 27.132C267.301 26.4787 268.664 26.152 270.194 26.152C272.154 26.152 273.788 26.6653 275.094 27.692C276.42 28.7187 277.288 30.1653 277.698 32.032H272.602C272.173 30.8373 271.342 30.24 270.11 30.24C269.233 30.24 268.533 30.5853 268.01 31.276C267.488 31.948 267.226 32.9187 267.226 34.188C267.226 35.4573 267.488 36.4373 268.01 37.128C268.533 37.8 269.233 38.136 270.11 38.136C271.342 38.136 272.173 37.5387 272.602 36.344H277.698C277.288 38.1733 276.42 39.6107 275.094 40.656C273.769 41.7013 272.136 42.224 270.194 42.224C268.664 42.224 267.301 41.8973 266.106 41.244C264.93 40.5907 264.006 39.6573 263.334 38.444C262.681 37.2307 262.354 35.812 262.354 34.188ZM279.307 34.16C279.307 32.5547 279.606 31.1453 280.203 29.932C280.819 28.7187 281.65 27.7853 282.695 27.132C283.741 26.4787 284.907 26.152 286.195 26.152C287.297 26.152 288.258 26.376 289.079 26.824C289.919 27.272 290.563 27.86 291.011 28.588V26.376H295.799V42H291.011V39.788C290.545 40.516 289.891 41.104 289.051 41.552C288.23 42 287.269 42.224 286.167 42.224C284.898 42.224 283.741 41.8973 282.695 41.244C281.65 40.572 280.819 39.6293 280.203 38.416C279.606 37.184 279.307 35.7653 279.307 34.16ZM291.011 34.188C291.011 32.9933 290.675 32.0507 290.003 31.36C289.35 30.6693 288.547 30.324 287.595 30.324C286.643 30.324 285.831 30.6693 285.159 31.36C284.506 32.032 284.179 32.9653 284.179 34.16C284.179 35.3547 284.506 36.3067 285.159 37.016C285.831 37.7067 286.643 38.052 287.595 38.052C288.547 38.052 289.35 37.7067 290.003 37.016C290.675 36.3253 291.011 35.3827 291.011 34.188ZM298.311 34.16C298.311 32.5547 298.61 31.1453 299.207 29.932C299.823 28.7187 300.654 27.7853 301.699 27.132C302.745 26.4787 303.911 26.152 305.199 26.152C306.226 26.152 307.159 26.3667 307.999 26.796C308.858 27.2253 309.53 27.804 310.015 28.532V21.28H314.803V42H310.015V39.76C309.567 40.5067 308.923 41.104 308.083 41.552C307.262 42 306.301 42.224 305.199 42.224C303.911 42.224 302.745 41.8973 301.699 41.244C300.654 40.572 299.823 39.6293 299.207 38.416C298.61 37.184 298.311 35.7653 298.311 34.16ZM310.015 34.188C310.015 32.9933 309.679 32.0507 309.007 31.36C308.354 30.6693 307.551 30.324 306.599 30.324C305.647 30.324 304.835 30.6693 304.163 31.36C303.51 32.032 303.183 32.9653 303.183 34.16C303.183 35.3547 303.51 36.3067 304.163 37.016C304.835 37.7067 305.647 38.052 306.599 38.052C307.551 38.052 308.354 37.7067 309.007 37.016C309.679 36.3253 310.015 35.3827 310.015 34.188ZM332.995 33.936C332.995 34.384 332.967 34.8507 332.911 35.336H322.075C322.15 36.3067 322.458 37.0533 322.999 37.576C323.559 38.08 324.241 38.332 325.043 38.332C326.238 38.332 327.069 37.828 327.535 36.82H332.631C332.37 37.8467 331.894 38.7707 331.203 39.592C330.531 40.4133 329.682 41.0573 328.655 41.524C327.629 41.9907 326.481 42.224 325.211 42.224C323.681 42.224 322.318 41.8973 321.123 41.244C319.929 40.5907 318.995 39.6573 318.323 38.444C317.651 37.2307 317.315 35.812 317.315 34.188C317.315 32.564 317.642 31.1453 318.295 29.932C318.967 28.7187 319.901 27.7853 321.095 27.132C322.29 26.4787 323.662 26.152 325.211 26.152C326.723 26.152 328.067 26.4693 329.243 27.104C330.419 27.7387 331.334 28.644 331.987 29.82C332.659 30.996 332.995 32.368 332.995 33.936ZM328.095 32.676C328.095 31.8547 327.815 31.2013 327.255 30.716C326.695 30.2307 325.995 29.988 325.155 29.988C324.353 29.988 323.671 30.2213 323.111 30.688C322.57 31.1547 322.234 31.8173 322.103 32.676H328.095ZM355.457 26.208C357.398 26.208 358.938 26.796 360.077 27.972C361.234 29.148 361.813 30.7813 361.813 32.872V42H357.053V33.516C357.053 32.508 356.782 31.7333 356.241 31.192C355.718 30.632 354.99 30.352 354.057 30.352C353.124 30.352 352.386 30.632 351.845 31.192C351.322 31.7333 351.061 32.508 351.061 33.516V42H346.301V33.516C346.301 32.508 346.03 31.7333 345.489 31.192C344.966 30.632 344.238 30.352 343.305 30.352C342.372 30.352 341.634 30.632 341.093 31.192C340.57 31.7333 340.309 32.508 340.309 33.516V42H335.521V26.376H340.309V28.336C340.794 27.6827 341.429 27.1693 342.213 26.796C342.997 26.404 343.884 26.208 344.873 26.208C346.049 26.208 347.094 26.46 348.009 26.964C348.942 27.468 349.67 28.1867 350.193 29.12C350.734 28.2613 351.472 27.5613 352.405 27.02C353.338 26.4787 354.356 26.208 355.457 26.208ZM381.122 26.376L371.322 49.42H366.17L369.754 41.468L363.398 26.376H368.746L372.358 36.148L375.942 26.376H381.122Z" fill="white"/>
</svg>
