<svg width="58" height="55" viewBox="0 0 58 55" fill="none" xmlns="http://www.w3.org/2000/svg">
<path d="M37.8141 25.2255L35.2102 27.7344C33.1271 29.6979 31.8252 31.3615 31.8252 35.4521H26.0388V34.0885C26.0388 31.0615 27.3407 28.3344 29.4238 26.3709L33.0114 22.9348C34.0819 21.953 34.7184 20.5895 34.7184 19.0896C34.7184 16.0625 32.1145 13.6354 28.932 13.6354C27.3974 13.6354 25.9256 14.2101 24.8404 15.2329C23.7552 16.2558 23.1456 17.643 23.1456 19.0896H17.3592C17.3592 16.1965 18.5785 13.4219 20.7488 11.3762C22.9191 9.33052 25.8627 8.18125 28.932 8.18125C32.0013 8.18125 34.9449 9.33052 37.1152 11.3762C39.2855 13.4219 40.5048 16.1965 40.5048 19.0896C40.5048 21.4894 39.4632 23.6438 37.8141 25.2255ZM31.8252 46.3604H26.0388V40.9063H31.8252V46.3604ZM28.932 0C25.1326 0 21.3704 0.705381 17.8602 2.07587C14.35 3.44636 11.1606 5.45511 8.47399 7.98744C3.04818 13.1017 0 20.0382 0 27.2708C0 34.5035 3.04818 41.44 8.47399 46.5542C11.1606 49.0866 14.35 51.0953 17.8602 52.4658C21.3704 53.8363 25.1326 54.5417 28.932 54.5417C36.6052 54.5417 43.9642 51.6685 49.39 46.5542C54.8158 41.44 57.864 34.5035 57.864 27.2708C57.864 12.1901 44.8446 0 28.932 0Z" fill="#028ACC"/>
</svg>
