<svg width="63" height="63" viewBox="0 0 63 63" fill="none" xmlns="http://www.w3.org/2000/svg">
<rect width="62.5625" height="62.5625" rx="31.2812" fill="#40D95B"/>
<path d="M44.5911 18.3689C41.112 14.8815 36.4787 12.9634 31.5547 12.9634C21.3914 12.9634 13.1211 21.2336 13.1211 31.397C13.1211 34.6436 13.9681 37.8155 15.579 40.6138L12.9634 50.1627L22.7365 47.5969C25.4268 49.0667 28.4576 49.8389 31.5464 49.8389H31.5547C41.7098 49.8389 50.1627 41.5687 50.1627 31.4053C50.1627 26.4814 48.0702 21.8563 44.5911 18.3689ZM31.5547 46.7334C28.798 46.7334 26.0994 45.9944 23.7495 44.5994L23.1932 44.2673L17.3974 45.7868L18.9418 40.1322L18.5765 39.5509C17.0404 37.1097 16.2349 34.2949 16.2349 31.397C16.2349 22.9524 23.1102 16.0772 31.563 16.0772C35.6566 16.0772 39.5011 17.6714 42.3907 20.5693C45.2803 23.4672 47.0572 27.3117 47.0489 31.4053C47.0489 39.8582 39.9993 46.7334 31.5547 46.7334ZM39.9578 35.2581C39.5011 35.0256 37.2343 33.9129 36.8108 33.7634C36.3873 33.6057 36.0801 33.531 35.7729 33.9959C35.4657 34.4609 34.5855 35.4906 34.3115 35.8061C34.0458 36.1133 33.7718 36.1548 33.3151 35.9223C30.6081 34.5689 28.8312 33.506 27.046 30.4421C26.5727 29.6283 27.5193 29.6865 28.3994 27.9261C28.5489 27.6189 28.4742 27.3532 28.3579 27.1207C28.2417 26.8882 27.32 24.6214 26.938 23.6997C26.5644 22.8029 26.1824 22.9275 25.9001 22.9109C25.6344 22.8943 25.3272 22.8943 25.0199 22.8943C24.7127 22.8943 24.2145 23.0105 23.791 23.4672C23.3676 23.9322 22.1802 25.0449 22.1802 27.3117C22.1802 29.5785 23.8326 31.7706 24.0568 32.0779C24.2892 32.3851 27.3034 37.035 31.9284 39.0361C34.8512 40.2982 35.9971 40.4062 37.4585 40.1903C38.3469 40.0574 40.182 39.0776 40.564 37.9982C40.9459 36.9187 40.9459 35.9971 40.8297 35.8061C40.7217 35.5985 40.4145 35.4823 39.9578 35.2581Z" fill="white"/>
</svg>
